<svg xmlns="http://www.w3.org/2000/svg" width="1682" height="935" viewBox="0 0 1682 935">
  <path fill="#0e488a" fill-rule="evenodd" d="M 291 881 L 291 889 L 292 890 L 292 898 L 293 899 L 293 907 L 294 908 L 294 918 L 295 919 L 295 929 L 323 929 L 324 928 L 334 928 L 335 927 L 342 927 L 343 926 L 349 926 L 350 925 L 355 925 L 356 924 L 359 924 L 360 923 L 364 923 L 365 922 L 369 922 L 370 921 L 373 921 L 374 920 L 377 920 L 378 919 L 379 919 L 379 903 L 378 902 L 378 887 L 377 886 L 377 881 Z M 140 881 L 140 882 L 142 884 L 143 884 L 145 886 L 146 886 L 148 888 L 149 888 L 151 890 L 152 890 L 154 892 L 155 892 L 157 894 L 158 894 L 160 896 L 161 896 L 162 897 L 163 897 L 164 898 L 165 898 L 167 900 L 168 900 L 169 901 L 170 901 L 171 902 L 172 902 L 173 903 L 174 903 L 175 904 L 176 904 L 177 905 L 178 905 L 179 906 L 180 906 L 181 907 L 182 907 L 183 908 L 184 908 L 185 909 L 186 909 L 187 910 L 188 910 L 188 906 L 189 905 L 189 892 L 190 891 L 190 881 Z M 445 874 L 446 875 L 464 875 L 469 870 L 470 870 L 489 851 L 489 850 L 496 843 L 496 842 L 501 837 L 501 836 L 504 833 L 504 831 L 437 831 L 437 836 L 438 837 L 438 840 L 439 841 L 439 844 L 440 845 L 440 849 L 441 850 L 441 854 L 442 855 L 442 859 L 443 860 L 443 864 L 444 865 L 444 869 L 445 870 Z M 282 831 L 282 833 L 283 834 L 283 838 L 284 839 L 284 843 L 285 844 L 285 849 L 286 850 L 286 854 L 287 855 L 287 860 L 288 861 L 288 867 L 289 868 L 289 874 L 290 875 L 371 875 L 372 876 L 376 876 L 376 863 L 375 862 L 375 854 L 374 853 L 374 846 L 373 845 L 373 837 L 372 836 L 372 831 Z M 88 831 L 88 833 L 93 838 L 93 839 L 98 844 L 98 845 L 116 863 L 117 863 L 125 871 L 126 871 L 130 875 L 177 875 L 178 876 L 183 876 L 184 875 L 190 875 L 190 859 L 189 858 L 189 846 L 188 845 L 188 836 L 187 835 L 187 831 Z M 57 784 L 57 786 L 58 787 L 58 788 L 59 789 L 59 790 L 60 791 L 60 792 L 62 794 L 62 795 L 63 796 L 63 797 L 64 798 L 64 799 L 66 801 L 66 802 L 67 803 L 67 804 L 69 806 L 69 807 L 71 809 L 71 810 L 73 812 L 73 813 L 75 815 L 75 816 L 77 818 L 77 819 L 79 821 L 79 822 L 82 825 L 186 825 L 186 820 L 185 819 L 185 812 L 184 811 L 184 804 L 183 803 L 183 800 L 176 800 L 175 801 L 168 801 L 167 802 L 158 802 L 157 803 L 141 803 L 140 802 L 125 802 L 124 801 L 119 801 L 118 800 L 111 800 L 110 799 L 106 799 L 105 798 L 101 798 L 100 797 L 97 797 L 96 796 L 93 796 L 92 795 L 89 795 L 88 794 L 85 794 L 84 793 L 82 793 L 81 792 L 78 792 L 77 791 L 75 791 L 74 790 L 72 790 L 71 789 L 69 789 L 68 788 L 67 788 L 66 787 L 64 787 L 63 786 L 62 786 L 61 785 L 59 785 L 58 784 Z M 424 782 L 424 784 L 425 785 L 425 788 L 426 789 L 426 792 L 427 793 L 427 796 L 428 797 L 428 799 L 429 800 L 429 802 L 430 803 L 430 806 L 431 807 L 431 810 L 432 811 L 432 814 L 433 815 L 433 819 L 434 820 L 434 822 L 435 823 L 435 825 L 510 825 L 510 824 L 513 821 L 513 820 L 516 817 L 516 816 L 517 815 L 517 814 L 519 812 L 519 811 L 521 809 L 521 808 L 523 806 L 523 805 L 524 804 L 524 803 L 525 802 L 525 801 L 527 799 L 527 798 L 528 797 L 528 796 L 529 795 L 529 794 L 530 793 L 530 792 L 531 791 L 531 790 L 532 789 L 532 788 L 533 787 L 533 786 L 534 785 L 534 784 L 535 783 L 535 782 Z M 269 782 L 269 784 L 270 785 L 270 787 L 271 788 L 271 790 L 272 791 L 272 793 L 273 794 L 273 797 L 274 798 L 274 800 L 275 801 L 275 804 L 276 805 L 276 807 L 277 808 L 277 811 L 278 812 L 278 815 L 279 816 L 279 819 L 280 820 L 280 823 L 281 824 L 281 825 L 371 825 L 371 822 L 370 821 L 370 815 L 369 814 L 369 809 L 368 808 L 368 803 L 367 802 L 367 799 L 366 798 L 366 794 L 365 793 L 365 789 L 364 788 L 364 785 L 363 784 L 363 782 Z M 71 782 L 71 783 L 73 783 L 74 784 L 75 784 L 76 785 L 78 785 L 79 786 L 82 786 L 83 787 L 85 787 L 86 788 L 88 788 L 89 789 L 92 789 L 93 790 L 96 790 L 97 791 L 101 791 L 102 792 L 105 792 L 106 793 L 111 793 L 112 794 L 118 794 L 119 795 L 126 795 L 127 796 L 141 796 L 142 797 L 156 797 L 157 796 L 168 796 L 169 795 L 177 795 L 178 794 L 182 794 L 182 792 L 181 791 L 181 786 L 180 785 L 180 782 Z M 408 733 L 408 735 L 409 736 L 409 738 L 410 739 L 410 741 L 411 742 L 411 743 L 412 744 L 412 746 L 413 747 L 413 749 L 414 750 L 414 752 L 415 753 L 415 754 L 416 755 L 416 757 L 417 758 L 417 760 L 418 761 L 418 764 L 419 765 L 419 767 L 420 768 L 420 770 L 421 771 L 421 773 L 422 774 L 422 776 L 528 776 L 529 777 L 533 777 L 534 776 L 535 777 L 537 777 L 538 776 L 538 775 L 539 774 L 539 773 L 540 772 L 540 771 L 541 770 L 541 768 L 542 767 L 542 766 L 543 765 L 543 763 L 544 762 L 544 760 L 545 759 L 545 757 L 546 756 L 546 754 L 547 753 L 547 751 L 548 750 L 548 747 L 549 746 L 549 744 L 550 743 L 550 739 L 551 738 L 551 735 L 552 734 L 552 733 L 547 733 L 546 732 L 545 732 L 544 733 L 543 732 L 508 732 L 507 733 L 497 733 L 496 732 L 446 732 L 445 733 L 440 733 L 439 732 L 431 732 L 430 733 L 429 732 L 422 732 L 421 733 Z M 361 776 L 361 775 L 360 774 L 360 771 L 359 770 L 359 768 L 358 767 L 358 765 L 357 764 L 357 763 L 356 762 L 356 760 L 355 759 L 355 757 L 354 756 L 354 755 L 353 754 L 353 752 L 352 751 L 352 750 L 351 749 L 351 747 L 350 746 L 350 744 L 349 743 L 349 742 L 348 741 L 348 740 L 347 739 L 347 737 L 346 736 L 346 735 L 345 734 L 345 733 L 343 733 L 342 732 L 325 732 L 324 733 L 323 732 L 318 732 L 317 733 L 314 733 L 307 740 L 306 740 L 299 747 L 298 747 L 294 751 L 293 751 L 289 755 L 288 755 L 285 758 L 284 758 L 283 759 L 282 759 L 279 762 L 278 762 L 277 763 L 276 763 L 274 765 L 273 765 L 271 767 L 270 767 L 269 768 L 268 768 L 267 769 L 266 769 L 265 770 L 265 772 L 266 773 L 266 775 L 268 777 L 277 777 L 278 776 L 279 777 L 286 777 L 287 776 L 296 776 L 297 777 L 307 777 L 308 776 L 335 776 L 336 777 L 349 777 L 350 776 L 351 776 L 352 777 L 353 777 L 354 776 Z M 251 733 L 251 735 L 252 736 L 252 738 L 253 739 L 253 741 L 254 742 L 254 743 L 255 744 L 255 745 L 256 746 L 256 748 L 257 749 L 257 751 L 258 752 L 258 753 L 259 754 L 259 756 L 260 757 L 260 759 L 261 760 L 261 761 L 262 762 L 262 764 L 265 764 L 266 763 L 267 763 L 269 761 L 270 761 L 271 760 L 272 760 L 274 758 L 275 758 L 276 757 L 277 757 L 280 754 L 281 754 L 284 751 L 285 751 L 288 748 L 289 748 L 293 744 L 294 744 L 298 740 L 299 740 L 305 734 L 305 733 L 296 733 L 295 732 L 265 732 L 264 733 Z M 37 732 L 37 736 L 38 737 L 38 739 L 39 740 L 39 743 L 40 744 L 40 746 L 41 747 L 41 750 L 42 751 L 42 752 L 43 753 L 43 755 L 44 756 L 44 758 L 45 759 L 45 761 L 46 762 L 46 763 L 47 764 L 47 766 L 48 767 L 48 768 L 49 769 L 49 770 L 50 771 L 50 772 L 51 773 L 51 774 L 52 775 L 52 776 L 53 777 L 179 777 L 179 774 L 178 773 L 178 768 L 177 767 L 177 763 L 176 762 L 176 757 L 175 756 L 175 752 L 174 751 L 174 748 L 173 747 L 173 744 L 172 743 L 172 739 L 171 738 L 171 735 L 170 734 L 159 734 L 158 735 L 153 735 L 152 736 L 148 736 L 147 737 L 144 737 L 143 738 L 138 738 L 137 739 L 132 739 L 131 740 L 125 740 L 124 741 L 115 741 L 114 742 L 90 742 L 89 741 L 79 741 L 78 740 L 72 740 L 71 739 L 67 739 L 66 738 L 62 738 L 61 737 L 57 737 L 56 736 L 53 736 L 52 735 L 49 735 L 48 734 L 44 734 L 43 733 L 40 733 L 39 732 Z M 341 725 L 340 724 L 340 723 L 339 722 L 339 721 L 338 720 L 338 719 L 337 718 L 337 717 L 336 716 L 336 715 L 335 714 L 335 713 L 333 713 L 329 717 L 329 718 L 321 726 L 321 727 L 341 727 Z M 385 682 L 385 684 L 386 685 L 386 686 L 387 687 L 387 688 L 388 689 L 388 690 L 389 691 L 389 692 L 390 693 L 390 694 L 391 695 L 391 696 L 392 697 L 392 698 L 393 699 L 393 700 L 394 701 L 394 702 L 395 703 L 395 705 L 396 706 L 396 707 L 397 708 L 397 709 L 398 710 L 398 711 L 399 712 L 399 713 L 400 714 L 400 716 L 401 717 L 401 718 L 402 719 L 402 720 L 403 721 L 403 723 L 404 724 L 404 725 L 405 726 L 405 727 L 552 727 L 553 726 L 553 722 L 554 721 L 554 682 Z M 234 693 L 234 696 L 235 697 L 235 698 L 236 699 L 236 700 L 237 701 L 237 702 L 238 703 L 238 705 L 239 706 L 239 707 L 240 708 L 240 709 L 241 710 L 241 711 L 242 712 L 242 714 L 243 715 L 243 716 L 244 717 L 244 718 L 245 719 L 245 721 L 246 722 L 246 723 L 247 724 L 247 726 L 248 727 L 312 727 L 326 713 L 326 712 L 329 709 L 329 708 L 331 706 L 331 705 L 330 704 L 330 703 L 329 702 L 329 701 L 328 700 L 328 699 L 327 698 L 327 697 L 325 695 L 325 694 L 324 693 L 324 692 L 322 690 L 322 689 L 321 688 L 321 687 L 320 686 L 320 685 L 319 684 L 319 683 L 318 682 L 245 682 Z M 228 682 L 228 683 L 229 684 L 229 685 L 230 686 L 230 687 L 231 687 L 235 683 L 235 682 Z M 34 682 L 34 721 L 36 723 L 38 723 L 39 724 L 42 724 L 43 725 L 45 725 L 46 726 L 49 726 L 50 727 L 54 727 L 55 728 L 61 728 L 62 729 L 79 729 L 80 730 L 128 730 L 129 729 L 150 729 L 151 728 L 155 728 L 156 727 L 160 727 L 161 726 L 163 726 L 164 725 L 166 725 L 167 724 L 168 724 L 168 722 L 167 721 L 167 719 L 166 718 L 166 716 L 165 715 L 165 712 L 164 711 L 164 709 L 163 708 L 163 706 L 162 705 L 162 703 L 161 702 L 161 700 L 160 699 L 160 697 L 159 696 L 159 694 L 158 693 L 158 691 L 157 690 L 157 688 L 156 687 L 156 686 L 155 685 L 155 683 L 154 682 Z M 369 654 L 369 656 L 370 657 L 370 658 L 371 659 L 371 660 L 373 662 L 373 663 L 374 664 L 374 665 L 376 667 L 376 668 L 377 669 L 377 670 L 379 672 L 379 673 L 380 674 L 380 675 L 381 676 L 381 677 L 554 677 L 554 633 L 379 633 L 378 634 L 378 635 L 377 636 L 377 638 L 376 639 L 376 640 L 375 641 L 375 643 L 374 644 L 374 645 L 373 646 L 373 647 L 372 648 L 372 649 L 371 650 L 371 651 L 370 652 L 370 653 Z M 355 633 L 355 634 L 356 635 L 356 636 L 358 638 L 358 639 L 360 641 L 360 642 L 362 644 L 362 645 L 364 647 L 364 648 L 365 649 L 366 649 L 366 647 L 367 646 L 367 645 L 368 644 L 368 643 L 369 642 L 369 640 L 370 639 L 370 638 L 371 637 L 371 636 L 372 635 L 372 633 Z M 314 675 L 313 674 L 313 673 L 311 671 L 311 670 L 310 669 L 310 668 L 308 666 L 308 665 L 306 663 L 306 662 L 305 661 L 305 660 L 303 658 L 303 657 L 301 655 L 301 654 L 299 652 L 299 651 L 297 649 L 297 648 L 296 647 L 296 646 L 294 644 L 294 643 L 292 641 L 292 640 L 289 637 L 289 636 L 288 635 L 288 634 L 287 633 L 284 633 L 283 634 L 283 635 L 281 637 L 281 638 L 279 640 L 279 641 L 277 643 L 277 644 L 275 646 L 275 647 L 273 649 L 273 650 L 270 653 L 270 654 L 266 658 L 266 659 L 261 664 L 261 665 L 255 671 L 255 672 L 251 676 L 251 677 L 314 677 Z M 202 633 L 202 634 L 203 635 L 203 636 L 204 637 L 204 638 L 205 639 L 205 640 L 207 642 L 207 643 L 208 644 L 208 645 L 209 646 L 209 647 L 211 649 L 211 650 L 212 651 L 212 652 L 213 653 L 213 654 L 214 655 L 214 656 L 215 657 L 215 658 L 217 660 L 217 661 L 218 662 L 218 663 L 219 664 L 219 665 L 220 666 L 220 667 L 221 668 L 221 669 L 222 670 L 222 671 L 223 672 L 223 673 L 224 674 L 224 675 L 225 676 L 225 677 L 242 677 L 244 675 L 244 674 L 245 673 L 246 673 L 246 672 L 254 664 L 254 663 L 258 659 L 258 658 L 263 653 L 263 652 L 266 649 L 266 648 L 269 645 L 269 644 L 271 642 L 271 641 L 273 639 L 273 638 L 275 636 L 275 633 Z M 34 633 L 34 677 L 152 677 L 152 676 L 151 675 L 151 673 L 150 672 L 150 671 L 149 670 L 149 668 L 148 667 L 148 666 L 147 665 L 147 664 L 146 663 L 146 661 L 145 660 L 145 659 L 144 658 L 144 656 L 143 655 L 143 654 L 142 653 L 142 652 L 141 651 L 141 650 L 140 649 L 140 647 L 139 646 L 139 645 L 138 644 L 138 643 L 137 642 L 137 641 L 136 640 L 136 639 L 135 638 L 135 637 L 134 636 L 134 635 L 133 634 L 126 634 L 125 633 Z M 381 625 L 381 628 L 554 628 L 554 586 L 392 586 L 391 587 L 391 590 L 390 591 L 390 595 L 389 596 L 389 599 L 388 600 L 388 603 L 387 604 L 387 607 L 386 608 L 386 610 L 385 611 L 385 614 L 384 615 L 384 617 L 383 618 L 383 621 L 382 622 L 382 624 Z M 321 586 L 321 587 L 323 589 L 323 590 L 326 593 L 326 594 L 329 597 L 329 598 L 332 601 L 332 602 L 335 605 L 335 606 L 338 609 L 338 610 L 340 612 L 340 613 L 343 616 L 343 617 L 345 619 L 345 620 L 347 622 L 347 623 L 350 626 L 350 627 L 351 628 L 374 628 L 375 627 L 375 625 L 376 624 L 376 621 L 377 620 L 377 618 L 378 617 L 378 615 L 379 614 L 379 611 L 380 610 L 380 607 L 381 606 L 381 604 L 382 603 L 382 600 L 383 599 L 383 595 L 384 594 L 384 591 L 385 590 L 385 586 Z M 130 626 L 129 625 L 129 624 L 128 623 L 128 622 L 127 621 L 127 620 L 126 619 L 126 618 L 125 617 L 125 616 L 124 615 L 124 614 L 123 613 L 123 612 L 122 611 L 122 610 L 121 609 L 121 608 L 119 606 L 119 605 L 118 604 L 118 603 L 117 602 L 117 601 L 116 600 L 116 599 L 114 597 L 114 596 L 113 595 L 113 594 L 112 593 L 112 592 L 111 591 L 111 590 L 110 589 L 110 588 L 109 587 L 101 587 L 100 586 L 97 586 L 96 587 L 34 587 L 34 628 L 130 628 Z M 1603 472 L 1603 473 L 1602 474 L 1602 476 L 1601 477 L 1601 480 L 1600 481 L 1600 483 L 1599 484 L 1599 487 L 1598 488 L 1598 490 L 1597 491 L 1597 494 L 1596 495 L 1596 497 L 1595 498 L 1595 500 L 1594 501 L 1594 504 L 1593 505 L 1593 508 L 1592 509 L 1592 510 L 1591 511 L 1591 514 L 1590 515 L 1590 518 L 1589 519 L 1589 521 L 1588 522 L 1588 524 L 1587 525 L 1587 529 L 1586 530 L 1586 532 L 1585 533 L 1585 535 L 1584 536 L 1584 539 L 1583 540 L 1583 542 L 1582 543 L 1582 546 L 1581 547 L 1581 549 L 1580 550 L 1580 553 L 1579 554 L 1579 556 L 1578 557 L 1578 560 L 1577 561 L 1577 563 L 1576 564 L 1576 566 L 1575 567 L 1575 570 L 1574 571 L 1574 573 L 1573 574 L 1573 577 L 1572 578 L 1572 580 L 1571 581 L 1571 584 L 1570 585 L 1570 587 L 1569 588 L 1569 590 L 1568 591 L 1568 594 L 1567 595 L 1567 598 L 1580 598 L 1580 597 L 1581 596 L 1581 593 L 1582 592 L 1582 589 L 1583 588 L 1583 585 L 1584 584 L 1584 582 L 1585 581 L 1585 578 L 1586 577 L 1586 574 L 1587 573 L 1587 571 L 1588 570 L 1588 567 L 1589 566 L 1589 564 L 1590 563 L 1590 562 L 1591 561 L 1627 561 L 1629 563 L 1629 565 L 1630 566 L 1630 570 L 1631 571 L 1631 573 L 1632 574 L 1632 576 L 1633 577 L 1633 580 L 1634 581 L 1634 584 L 1635 585 L 1635 588 L 1636 589 L 1636 591 L 1637 592 L 1637 595 L 1638 596 L 1638 598 L 1651 598 L 1652 597 L 1652 596 L 1651 595 L 1651 592 L 1650 591 L 1650 589 L 1649 588 L 1649 585 L 1648 584 L 1648 582 L 1647 581 L 1647 578 L 1646 577 L 1646 575 L 1645 574 L 1645 571 L 1644 570 L 1644 568 L 1643 567 L 1643 564 L 1642 563 L 1642 561 L 1641 560 L 1641 557 L 1640 556 L 1640 554 L 1639 553 L 1639 550 L 1638 549 L 1638 547 L 1637 546 L 1637 543 L 1636 542 L 1636 540 L 1635 539 L 1635 537 L 1634 536 L 1634 533 L 1633 532 L 1633 530 L 1632 529 L 1632 526 L 1631 525 L 1631 523 L 1630 522 L 1630 519 L 1629 518 L 1629 516 L 1628 515 L 1628 513 L 1627 512 L 1627 509 L 1626 508 L 1626 506 L 1625 505 L 1625 502 L 1624 501 L 1624 499 L 1623 498 L 1623 495 L 1622 494 L 1622 492 L 1621 491 L 1621 488 L 1620 487 L 1620 484 L 1619 483 L 1619 480 L 1618 479 L 1618 477 L 1617 476 L 1617 473 L 1616 472 Z M 1609 493 L 1611 495 L 1611 499 L 1612 500 L 1612 502 L 1613 503 L 1613 506 L 1614 507 L 1614 510 L 1615 511 L 1615 514 L 1616 515 L 1616 517 L 1617 518 L 1617 521 L 1618 522 L 1618 525 L 1619 526 L 1619 529 L 1620 530 L 1620 532 L 1621 533 L 1621 536 L 1622 537 L 1622 540 L 1623 541 L 1623 544 L 1624 545 L 1623 546 L 1596 546 L 1595 545 L 1595 543 L 1596 542 L 1596 539 L 1597 538 L 1597 536 L 1598 535 L 1598 532 L 1599 531 L 1599 528 L 1600 527 L 1600 525 L 1601 524 L 1601 521 L 1602 520 L 1602 517 L 1603 516 L 1603 513 L 1604 512 L 1604 509 L 1605 508 L 1605 506 L 1606 505 L 1606 502 L 1607 501 L 1607 498 L 1608 497 L 1608 494 Z M 1487 472 L 1487 476 L 1486 477 L 1486 492 L 1487 493 L 1486 494 L 1486 507 L 1487 508 L 1486 509 L 1486 568 L 1487 569 L 1486 570 L 1486 597 L 1487 598 L 1523 598 L 1524 597 L 1529 597 L 1530 596 L 1533 596 L 1534 595 L 1536 595 L 1537 594 L 1538 594 L 1539 593 L 1540 593 L 1542 591 L 1543 591 L 1551 583 L 1551 582 L 1553 580 L 1553 579 L 1554 578 L 1554 576 L 1555 575 L 1555 574 L 1556 573 L 1556 572 L 1557 571 L 1557 569 L 1558 568 L 1558 565 L 1559 564 L 1559 562 L 1560 561 L 1560 557 L 1561 556 L 1561 551 L 1562 550 L 1562 517 L 1561 516 L 1561 511 L 1560 510 L 1560 507 L 1559 506 L 1559 504 L 1558 503 L 1558 501 L 1557 500 L 1557 498 L 1556 497 L 1556 496 L 1555 495 L 1555 494 L 1554 493 L 1554 492 L 1553 491 L 1553 490 L 1552 489 L 1552 488 L 1549 485 L 1549 484 L 1548 483 L 1547 483 L 1546 482 L 1546 481 L 1545 481 L 1542 478 L 1541 478 L 1540 477 L 1539 477 L 1538 476 L 1537 476 L 1536 475 L 1534 475 L 1533 474 L 1531 474 L 1530 473 L 1524 473 L 1523 472 Z M 1500 487 L 1512 487 L 1513 486 L 1514 487 L 1526 487 L 1527 488 L 1530 488 L 1531 489 L 1532 489 L 1533 490 L 1534 490 L 1535 491 L 1536 491 L 1541 496 L 1541 497 L 1543 499 L 1543 500 L 1544 501 L 1544 502 L 1545 503 L 1545 504 L 1546 505 L 1546 507 L 1547 508 L 1547 511 L 1548 512 L 1548 516 L 1549 517 L 1549 525 L 1550 526 L 1550 542 L 1549 543 L 1549 551 L 1548 552 L 1548 556 L 1547 557 L 1547 560 L 1546 561 L 1546 563 L 1545 564 L 1545 566 L 1544 567 L 1544 568 L 1542 570 L 1542 571 L 1540 573 L 1540 574 L 1536 578 L 1535 578 L 1533 580 L 1532 580 L 1531 581 L 1530 581 L 1529 582 L 1526 582 L 1525 583 L 1500 583 L 1499 582 L 1499 488 Z M 1428 472 L 1427 473 L 1427 475 L 1426 476 L 1426 478 L 1425 479 L 1425 482 L 1424 483 L 1424 485 L 1423 486 L 1423 489 L 1422 490 L 1422 492 L 1421 493 L 1421 495 L 1420 496 L 1420 499 L 1419 500 L 1419 502 L 1418 503 L 1418 507 L 1417 508 L 1417 509 L 1416 510 L 1416 512 L 1415 513 L 1415 516 L 1414 517 L 1414 519 L 1413 520 L 1413 523 L 1412 524 L 1412 526 L 1411 527 L 1411 530 L 1410 531 L 1410 533 L 1409 534 L 1409 537 L 1408 538 L 1408 540 L 1407 541 L 1407 543 L 1406 544 L 1406 547 L 1405 548 L 1405 550 L 1404 551 L 1404 553 L 1403 554 L 1403 557 L 1402 558 L 1402 560 L 1401 561 L 1401 564 L 1400 565 L 1400 567 L 1399 568 L 1399 571 L 1398 572 L 1398 574 L 1397 575 L 1397 578 L 1396 579 L 1396 581 L 1395 582 L 1395 585 L 1394 586 L 1394 589 L 1393 590 L 1393 593 L 1392 594 L 1392 598 L 1404 598 L 1405 597 L 1405 595 L 1406 594 L 1406 592 L 1407 591 L 1407 588 L 1408 587 L 1408 585 L 1409 584 L 1409 581 L 1410 580 L 1410 577 L 1411 576 L 1411 574 L 1412 573 L 1412 570 L 1413 569 L 1413 566 L 1414 565 L 1414 563 L 1416 561 L 1452 561 L 1454 563 L 1454 566 L 1455 567 L 1455 570 L 1456 571 L 1456 573 L 1457 574 L 1457 576 L 1458 577 L 1458 580 L 1459 581 L 1459 584 L 1460 585 L 1460 588 L 1461 589 L 1461 591 L 1462 592 L 1462 595 L 1463 596 L 1463 597 L 1464 598 L 1476 598 L 1477 597 L 1477 594 L 1476 593 L 1476 591 L 1475 590 L 1475 587 L 1474 586 L 1474 584 L 1473 583 L 1473 581 L 1472 580 L 1472 577 L 1471 576 L 1471 574 L 1470 573 L 1470 570 L 1469 569 L 1469 567 L 1468 566 L 1468 563 L 1467 562 L 1467 560 L 1466 559 L 1466 557 L 1465 556 L 1465 553 L 1464 552 L 1464 549 L 1463 548 L 1463 546 L 1462 545 L 1462 543 L 1461 542 L 1461 539 L 1460 538 L 1460 535 L 1459 534 L 1459 532 L 1458 531 L 1458 529 L 1457 528 L 1457 525 L 1456 524 L 1456 522 L 1455 521 L 1455 518 L 1454 517 L 1454 515 L 1453 514 L 1453 511 L 1452 510 L 1452 508 L 1451 507 L 1451 504 L 1450 503 L 1450 500 L 1449 499 L 1449 497 L 1448 496 L 1448 494 L 1447 493 L 1447 491 L 1446 490 L 1446 487 L 1445 486 L 1445 484 L 1444 483 L 1444 480 L 1443 479 L 1443 477 L 1442 476 L 1442 473 L 1441 472 Z M 1434 493 L 1435 494 L 1435 496 L 1436 497 L 1436 499 L 1437 500 L 1437 503 L 1438 504 L 1438 507 L 1439 508 L 1439 511 L 1440 512 L 1440 514 L 1441 515 L 1441 518 L 1442 519 L 1442 521 L 1443 522 L 1443 525 L 1444 526 L 1444 529 L 1445 530 L 1445 533 L 1446 534 L 1446 536 L 1447 537 L 1447 540 L 1448 541 L 1448 543 L 1449 544 L 1449 545 L 1447 547 L 1446 546 L 1438 546 L 1437 547 L 1433 547 L 1432 546 L 1420 546 L 1419 545 L 1420 544 L 1420 542 L 1421 541 L 1421 538 L 1422 537 L 1422 534 L 1423 533 L 1423 531 L 1424 530 L 1424 527 L 1425 526 L 1425 524 L 1426 523 L 1426 520 L 1427 519 L 1427 516 L 1428 515 L 1428 512 L 1429 511 L 1429 508 L 1430 507 L 1430 505 L 1431 504 L 1431 501 L 1432 500 L 1432 497 L 1433 496 L 1433 494 Z M 1311 472 L 1310 473 L 1310 598 L 1323 598 L 1323 546 L 1324 545 L 1357 545 L 1358 546 L 1360 546 L 1362 548 L 1363 548 L 1365 550 L 1365 551 L 1366 552 L 1366 553 L 1367 554 L 1367 556 L 1368 557 L 1368 561 L 1369 562 L 1369 574 L 1370 575 L 1370 590 L 1371 591 L 1371 595 L 1372 596 L 1372 597 L 1373 598 L 1388 598 L 1388 597 L 1387 596 L 1387 595 L 1386 594 L 1386 593 L 1385 592 L 1385 590 L 1384 589 L 1384 586 L 1383 585 L 1383 573 L 1382 572 L 1382 559 L 1381 558 L 1381 553 L 1380 552 L 1380 549 L 1379 548 L 1379 546 L 1378 545 L 1378 544 L 1373 539 L 1372 539 L 1370 537 L 1372 535 L 1373 535 L 1379 529 L 1379 528 L 1380 527 L 1380 526 L 1381 525 L 1381 524 L 1382 523 L 1382 521 L 1383 520 L 1383 516 L 1384 515 L 1384 497 L 1383 496 L 1383 493 L 1382 492 L 1382 490 L 1381 489 L 1381 487 L 1379 485 L 1379 484 L 1377 482 L 1377 481 L 1374 478 L 1373 478 L 1371 476 L 1370 476 L 1369 475 L 1368 475 L 1367 474 L 1365 474 L 1364 473 L 1359 473 L 1358 472 Z M 1324 487 L 1333 487 L 1334 486 L 1336 486 L 1337 487 L 1340 487 L 1341 486 L 1352 486 L 1353 487 L 1359 487 L 1360 488 L 1361 488 L 1362 489 L 1363 489 L 1368 494 L 1368 495 L 1369 496 L 1369 497 L 1370 498 L 1370 502 L 1371 503 L 1371 512 L 1370 513 L 1370 517 L 1369 518 L 1369 520 L 1368 521 L 1368 522 L 1362 528 L 1361 528 L 1360 529 L 1359 529 L 1358 530 L 1354 530 L 1353 531 L 1338 531 L 1337 530 L 1324 530 L 1323 529 L 1323 488 Z M 1218 472 L 1217 473 L 1217 597 L 1218 598 L 1268 598 L 1269 597 L 1273 597 L 1274 596 L 1276 596 L 1277 595 L 1278 595 L 1280 593 L 1281 593 L 1288 586 L 1288 585 L 1290 583 L 1290 582 L 1291 581 L 1291 579 L 1292 578 L 1292 576 L 1293 575 L 1293 572 L 1294 571 L 1294 552 L 1293 551 L 1293 549 L 1292 548 L 1292 546 L 1291 545 L 1291 544 L 1290 543 L 1290 542 L 1288 540 L 1288 539 L 1284 535 L 1283 535 L 1282 534 L 1281 534 L 1280 533 L 1279 533 L 1277 531 L 1278 530 L 1279 530 L 1285 524 L 1285 523 L 1286 522 L 1286 521 L 1287 520 L 1287 519 L 1288 518 L 1288 516 L 1289 515 L 1289 512 L 1290 511 L 1290 495 L 1289 494 L 1289 491 L 1288 490 L 1288 488 L 1287 487 L 1287 486 L 1285 484 L 1285 483 L 1278 476 L 1277 476 L 1276 475 L 1275 475 L 1274 474 L 1272 474 L 1271 473 L 1266 473 L 1265 472 Z M 1231 542 L 1233 540 L 1235 540 L 1236 541 L 1238 541 L 1239 540 L 1249 540 L 1250 541 L 1268 541 L 1269 542 L 1270 542 L 1271 543 L 1272 543 L 1277 548 L 1277 549 L 1279 551 L 1279 553 L 1280 554 L 1280 559 L 1281 560 L 1281 561 L 1280 562 L 1280 570 L 1279 571 L 1279 572 L 1278 573 L 1278 574 L 1277 575 L 1277 576 L 1272 581 L 1271 581 L 1270 582 L 1269 582 L 1268 583 L 1232 583 L 1231 582 Z M 1231 488 L 1232 487 L 1265 487 L 1266 488 L 1268 488 L 1274 494 L 1274 495 L 1275 496 L 1275 498 L 1276 499 L 1276 503 L 1277 504 L 1277 509 L 1276 510 L 1276 514 L 1275 515 L 1275 516 L 1274 517 L 1274 518 L 1273 519 L 1273 520 L 1269 524 L 1268 524 L 1267 525 L 1266 525 L 1265 526 L 1262 526 L 1261 527 L 1233 527 L 1231 525 Z M 1055 472 L 1055 598 L 1134 598 L 1134 597 L 1135 596 L 1135 593 L 1136 592 L 1136 589 L 1137 588 L 1137 586 L 1138 585 L 1138 582 L 1139 581 L 1139 579 L 1140 578 L 1140 575 L 1141 574 L 1141 571 L 1142 570 L 1142 567 L 1143 566 L 1143 564 L 1144 563 L 1144 562 L 1145 561 L 1182 561 L 1183 562 L 1183 563 L 1184 564 L 1184 566 L 1185 567 L 1185 570 L 1186 571 L 1186 574 L 1187 575 L 1187 577 L 1188 578 L 1188 581 L 1189 582 L 1189 585 L 1190 586 L 1190 589 L 1191 590 L 1191 592 L 1192 593 L 1192 595 L 1193 596 L 1193 598 L 1207 598 L 1208 597 L 1208 596 L 1207 595 L 1207 593 L 1206 592 L 1206 590 L 1205 589 L 1205 586 L 1204 585 L 1204 583 L 1203 582 L 1203 579 L 1202 578 L 1202 576 L 1201 575 L 1201 573 L 1200 572 L 1200 569 L 1199 568 L 1199 565 L 1198 564 L 1198 562 L 1197 561 L 1197 559 L 1196 558 L 1196 555 L 1195 554 L 1195 552 L 1194 551 L 1194 548 L 1193 547 L 1193 544 L 1192 543 L 1192 541 L 1191 540 L 1191 538 L 1190 537 L 1190 534 L 1189 533 L 1189 531 L 1188 530 L 1188 528 L 1187 527 L 1187 524 L 1186 523 L 1186 521 L 1185 520 L 1185 518 L 1184 517 L 1184 514 L 1183 513 L 1183 511 L 1182 510 L 1182 508 L 1181 507 L 1181 504 L 1180 503 L 1180 501 L 1179 500 L 1179 497 L 1178 496 L 1178 494 L 1177 493 L 1177 491 L 1176 490 L 1176 487 L 1175 486 L 1175 484 L 1174 483 L 1174 480 L 1173 479 L 1173 477 L 1172 476 L 1172 473 L 1171 472 L 1157 472 L 1156 473 L 1156 476 L 1155 477 L 1155 479 L 1154 480 L 1154 482 L 1153 483 L 1153 486 L 1152 487 L 1152 489 L 1151 490 L 1151 492 L 1150 493 L 1150 496 L 1149 497 L 1149 500 L 1148 501 L 1148 503 L 1147 504 L 1147 506 L 1146 507 L 1146 510 L 1145 511 L 1145 513 L 1144 514 L 1144 516 L 1143 517 L 1143 520 L 1142 521 L 1142 523 L 1141 524 L 1141 526 L 1140 527 L 1140 530 L 1139 531 L 1139 533 L 1138 534 L 1138 536 L 1137 537 L 1137 540 L 1136 541 L 1136 544 L 1135 545 L 1135 547 L 1134 548 L 1134 550 L 1133 551 L 1133 554 L 1132 555 L 1132 557 L 1131 558 L 1131 561 L 1130 562 L 1130 564 L 1129 565 L 1129 568 L 1128 569 L 1128 571 L 1127 572 L 1127 574 L 1126 575 L 1126 578 L 1125 579 L 1125 581 L 1124 582 L 1124 585 L 1123 586 L 1123 588 L 1122 589 L 1122 592 L 1121 593 L 1121 594 L 1120 595 L 1119 594 L 1119 584 L 1114 584 L 1113 583 L 1111 583 L 1110 584 L 1109 583 L 1069 583 L 1068 582 L 1068 564 L 1069 563 L 1069 533 L 1068 532 L 1068 528 L 1069 527 L 1069 526 L 1068 525 L 1068 519 L 1069 518 L 1069 509 L 1068 508 L 1068 492 L 1069 491 L 1069 473 L 1068 472 Z M 1164 493 L 1165 494 L 1165 497 L 1166 498 L 1166 500 L 1167 501 L 1167 504 L 1168 505 L 1168 507 L 1169 508 L 1169 512 L 1170 513 L 1170 516 L 1171 517 L 1171 519 L 1172 520 L 1172 523 L 1173 524 L 1173 527 L 1174 528 L 1174 531 L 1175 532 L 1175 534 L 1176 535 L 1176 537 L 1177 538 L 1177 541 L 1178 542 L 1178 546 L 1177 547 L 1150 547 L 1149 546 L 1149 543 L 1150 542 L 1150 540 L 1151 539 L 1151 536 L 1152 535 L 1152 533 L 1153 532 L 1153 529 L 1154 528 L 1154 526 L 1155 525 L 1155 522 L 1156 521 L 1156 519 L 1157 518 L 1157 515 L 1158 514 L 1158 512 L 1159 511 L 1159 508 L 1160 507 L 1160 504 L 1161 503 L 1161 501 L 1162 500 L 1162 497 L 1163 496 L 1163 494 Z M 957 472 L 957 598 L 970 598 L 970 503 L 971 502 L 972 503 L 972 504 L 973 505 L 973 506 L 974 507 L 974 508 L 975 509 L 975 510 L 976 511 L 976 512 L 977 513 L 977 514 L 978 515 L 978 516 L 979 517 L 979 518 L 980 519 L 980 520 L 981 521 L 981 522 L 982 523 L 982 524 L 983 525 L 983 526 L 984 527 L 984 528 L 985 529 L 985 530 L 986 531 L 986 532 L 987 533 L 987 534 L 988 535 L 988 536 L 989 537 L 989 538 L 990 539 L 990 540 L 991 541 L 991 542 L 992 543 L 992 544 L 993 545 L 993 547 L 995 549 L 995 550 L 996 551 L 996 552 L 997 553 L 997 555 L 999 557 L 999 558 L 1000 559 L 1000 560 L 1001 561 L 1001 562 L 1002 563 L 1002 564 L 1003 565 L 1003 566 L 1004 567 L 1004 568 L 1005 569 L 1005 571 L 1007 573 L 1007 574 L 1008 575 L 1008 576 L 1009 577 L 1009 578 L 1010 579 L 1010 580 L 1011 581 L 1011 582 L 1012 583 L 1012 584 L 1013 585 L 1013 586 L 1014 587 L 1014 588 L 1015 589 L 1015 590 L 1016 591 L 1016 592 L 1017 593 L 1017 594 L 1018 595 L 1018 596 L 1020 598 L 1035 598 L 1035 472 L 1022 472 L 1021 473 L 1021 474 L 1022 475 L 1022 481 L 1021 482 L 1021 544 L 1022 545 L 1022 546 L 1021 547 L 1021 551 L 1022 552 L 1021 553 L 1021 561 L 1022 562 L 1022 569 L 1021 570 L 1020 570 L 1019 569 L 1019 568 L 1018 567 L 1018 566 L 1017 565 L 1017 563 L 1016 562 L 1016 561 L 1015 560 L 1015 559 L 1013 557 L 1013 556 L 1012 555 L 1012 554 L 1011 553 L 1011 552 L 1010 551 L 1010 550 L 1009 549 L 1009 548 L 1008 547 L 1008 545 L 1006 543 L 1006 542 L 1005 541 L 1005 540 L 1004 539 L 1004 538 L 1003 537 L 1003 536 L 1002 535 L 1002 534 L 1001 533 L 1001 532 L 1000 531 L 1000 530 L 999 529 L 999 528 L 998 527 L 998 526 L 997 525 L 997 524 L 996 523 L 996 522 L 995 521 L 995 520 L 994 519 L 994 518 L 993 517 L 993 515 L 992 514 L 992 513 L 991 512 L 991 511 L 989 509 L 989 508 L 988 507 L 988 506 L 987 505 L 987 504 L 986 503 L 986 502 L 985 501 L 985 499 L 984 498 L 984 497 L 983 496 L 983 495 L 982 494 L 982 493 L 981 492 L 981 491 L 980 490 L 980 489 L 979 488 L 979 487 L 978 486 L 978 485 L 977 484 L 977 483 L 976 482 L 976 481 L 975 480 L 975 479 L 974 478 L 974 477 L 973 476 L 973 475 L 972 474 L 972 473 L 971 472 Z M 873 472 L 873 598 L 942 598 L 942 584 L 905 584 L 904 583 L 903 583 L 902 584 L 901 583 L 895 583 L 894 584 L 893 583 L 888 583 L 887 582 L 887 542 L 888 541 L 938 541 L 938 527 L 888 527 L 887 526 L 887 488 L 888 487 L 941 487 L 942 486 L 942 473 L 941 472 Z M 775 472 L 774 473 L 774 557 L 775 558 L 775 566 L 776 567 L 776 571 L 777 572 L 777 575 L 778 576 L 778 578 L 779 579 L 779 580 L 780 581 L 780 582 L 781 583 L 781 584 L 783 586 L 783 587 L 790 594 L 791 594 L 793 596 L 794 596 L 795 597 L 796 597 L 797 598 L 799 598 L 800 599 L 803 599 L 804 600 L 809 600 L 810 601 L 819 601 L 820 600 L 824 600 L 825 599 L 829 599 L 830 598 L 831 598 L 832 597 L 833 597 L 834 596 L 835 596 L 836 595 L 837 595 L 840 592 L 841 592 L 842 591 L 842 590 L 846 586 L 846 585 L 847 584 L 847 583 L 848 582 L 848 581 L 849 580 L 849 579 L 850 578 L 850 576 L 851 575 L 851 572 L 852 571 L 852 567 L 853 566 L 853 560 L 854 559 L 854 473 L 853 472 L 840 472 L 840 560 L 839 561 L 839 565 L 838 566 L 838 569 L 837 570 L 837 572 L 836 573 L 836 574 L 835 575 L 835 576 L 833 578 L 833 579 L 831 581 L 830 581 L 828 583 L 827 583 L 826 584 L 825 584 L 824 585 L 823 585 L 822 586 L 818 586 L 817 587 L 812 587 L 811 586 L 807 586 L 806 585 L 805 585 L 804 584 L 802 584 L 800 582 L 799 582 L 795 578 L 795 577 L 793 575 L 793 574 L 792 573 L 792 572 L 791 571 L 791 569 L 790 568 L 790 563 L 789 562 L 789 556 L 788 555 L 788 472 Z M 761 472 L 698 472 L 697 473 L 697 598 L 710 598 L 711 597 L 711 542 L 712 541 L 755 541 L 755 527 L 712 527 L 711 526 L 711 488 L 712 487 L 719 487 L 720 486 L 722 486 L 723 487 L 760 487 L 761 486 Z M 34 469 L 34 581 L 105 581 L 105 579 L 103 577 L 103 576 L 102 575 L 102 574 L 101 573 L 101 572 L 100 571 L 100 570 L 98 568 L 98 567 L 97 566 L 97 565 L 96 564 L 96 563 L 94 561 L 94 560 L 93 559 L 93 558 L 91 556 L 91 555 L 90 554 L 90 553 L 89 552 L 89 551 L 87 549 L 87 548 L 86 547 L 86 546 L 84 544 L 84 543 L 82 541 L 82 540 L 81 539 L 81 538 L 79 536 L 79 535 L 78 534 L 78 533 L 76 531 L 76 530 L 74 528 L 74 527 L 72 525 L 72 524 L 70 522 L 70 521 L 68 519 L 68 518 L 66 516 L 66 515 L 65 514 L 65 513 L 63 511 L 63 510 L 61 508 L 61 507 L 59 505 L 59 504 L 57 502 L 57 501 L 55 499 L 55 498 L 53 496 L 53 495 L 50 492 L 50 491 L 49 490 L 49 489 L 47 487 L 47 486 L 44 483 L 44 482 L 42 480 L 42 479 L 40 477 L 40 476 L 37 473 L 37 472 L 35 470 L 35 469 Z M 34 340 L 34 431 L 54 451 L 54 452 L 81 479 L 81 480 L 95 494 L 95 495 L 104 504 L 104 505 L 112 513 L 112 514 L 119 521 L 119 522 L 124 527 L 124 528 L 130 534 L 130 535 L 134 539 L 134 540 L 139 545 L 139 546 L 143 550 L 143 551 L 147 555 L 147 556 L 151 560 L 151 561 L 154 564 L 154 565 L 157 568 L 157 569 L 161 573 L 161 574 L 164 577 L 164 578 L 167 581 L 167 582 L 170 585 L 170 586 L 172 588 L 172 589 L 175 592 L 175 593 L 177 595 L 177 596 L 179 598 L 179 599 L 182 602 L 182 603 L 184 605 L 184 606 L 186 608 L 186 609 L 188 611 L 188 612 L 190 614 L 190 615 L 192 617 L 192 618 L 194 620 L 194 621 L 195 622 L 195 623 L 197 625 L 197 626 L 198 627 L 198 628 L 279 628 L 280 627 L 280 626 L 281 625 L 281 624 L 280 623 L 280 622 L 278 620 L 278 619 L 276 617 L 276 616 L 274 614 L 274 613 L 273 612 L 273 611 L 271 609 L 271 608 L 269 606 L 269 605 L 267 603 L 267 602 L 265 600 L 265 599 L 263 597 L 263 596 L 262 595 L 262 594 L 259 591 L 259 590 L 257 588 L 257 587 L 256 586 L 256 585 L 253 582 L 253 581 L 251 579 L 251 578 L 248 575 L 248 574 L 246 572 L 246 571 L 243 568 L 243 567 L 241 565 L 241 564 L 239 562 L 239 561 L 235 557 L 235 556 L 232 553 L 232 552 L 229 549 L 229 548 L 225 544 L 225 543 L 222 540 L 222 539 L 219 536 L 219 535 L 215 531 L 215 530 L 211 526 L 211 525 L 207 521 L 207 520 L 203 516 L 203 515 L 199 511 L 199 510 L 195 506 L 195 505 L 189 499 L 189 498 L 183 492 L 183 491 L 176 484 L 176 483 L 167 474 L 167 473 L 154 460 L 154 459 L 134 439 L 134 438 L 62 366 L 61 366 L 35 340 Z M 1213 331 L 1213 421 L 1224 421 L 1225 420 L 1225 332 L 1224 331 Z M 845 331 L 845 403 L 846 404 L 846 407 L 847 408 L 847 410 L 848 411 L 848 412 L 849 413 L 849 414 L 851 416 L 851 417 L 852 418 L 853 418 L 855 420 L 856 420 L 857 421 L 858 421 L 859 422 L 862 422 L 863 423 L 871 423 L 872 422 L 875 422 L 876 421 L 877 421 L 878 420 L 879 420 L 885 414 L 885 413 L 886 412 L 886 411 L 888 409 L 889 410 L 889 421 L 899 421 L 899 331 L 888 331 L 888 387 L 887 388 L 887 392 L 886 393 L 886 396 L 885 397 L 885 398 L 884 399 L 884 400 L 883 401 L 883 402 L 877 408 L 876 408 L 875 409 L 873 409 L 872 410 L 866 410 L 865 409 L 864 409 L 863 408 L 862 408 L 859 405 L 859 404 L 858 403 L 858 401 L 857 400 L 857 396 L 856 395 L 856 331 Z M 834 331 L 822 331 L 821 332 L 821 334 L 820 335 L 820 338 L 819 339 L 819 342 L 818 343 L 818 346 L 817 347 L 817 350 L 816 351 L 816 355 L 815 356 L 815 358 L 814 359 L 814 362 L 813 363 L 813 366 L 812 367 L 812 371 L 811 372 L 811 375 L 810 376 L 810 379 L 809 380 L 809 383 L 808 384 L 808 387 L 807 388 L 807 390 L 806 391 L 806 394 L 805 395 L 805 398 L 804 399 L 804 402 L 803 403 L 802 402 L 802 399 L 801 398 L 801 395 L 800 394 L 800 391 L 799 390 L 799 387 L 798 386 L 798 383 L 797 382 L 797 380 L 796 379 L 796 375 L 795 374 L 795 372 L 794 371 L 794 367 L 793 366 L 793 364 L 792 363 L 792 360 L 791 359 L 791 355 L 790 354 L 790 351 L 789 350 L 789 348 L 788 347 L 788 344 L 787 343 L 787 340 L 786 339 L 786 336 L 785 335 L 785 331 L 772 331 L 772 334 L 773 335 L 773 338 L 774 339 L 774 342 L 775 343 L 775 345 L 776 346 L 776 348 L 777 349 L 777 352 L 778 353 L 778 356 L 779 357 L 779 359 L 780 360 L 780 363 L 781 364 L 781 367 L 782 368 L 782 370 L 783 371 L 783 374 L 784 375 L 784 377 L 785 378 L 785 381 L 786 382 L 786 384 L 787 385 L 787 387 L 788 388 L 788 391 L 789 392 L 789 394 L 790 395 L 790 398 L 791 399 L 791 401 L 792 402 L 792 404 L 793 405 L 793 408 L 794 409 L 794 411 L 795 412 L 795 415 L 796 416 L 796 418 L 797 419 L 797 422 L 796 423 L 796 426 L 795 427 L 795 429 L 794 430 L 794 432 L 793 433 L 793 435 L 792 436 L 792 437 L 791 438 L 791 440 L 788 443 L 787 443 L 786 444 L 782 444 L 781 443 L 778 443 L 778 456 L 780 456 L 781 457 L 788 457 L 789 456 L 792 456 L 793 455 L 794 455 L 798 451 L 798 450 L 799 449 L 799 448 L 800 447 L 800 446 L 801 445 L 801 444 L 802 443 L 802 441 L 803 440 L 803 438 L 804 437 L 804 435 L 805 434 L 805 432 L 806 431 L 806 428 L 807 427 L 807 425 L 808 424 L 808 422 L 809 421 L 809 418 L 810 417 L 810 414 L 811 413 L 811 411 L 812 410 L 812 408 L 813 407 L 813 404 L 814 403 L 814 401 L 815 400 L 815 397 L 816 396 L 816 394 L 817 393 L 817 391 L 818 390 L 818 387 L 819 386 L 819 383 L 820 382 L 820 380 L 821 379 L 821 376 L 822 375 L 822 373 L 823 372 L 823 369 L 824 368 L 824 366 L 825 365 L 825 362 L 826 361 L 826 359 L 827 358 L 827 355 L 828 354 L 828 351 L 829 350 L 829 348 L 830 347 L 830 344 L 831 343 L 831 341 L 832 340 L 832 337 L 833 336 L 833 333 L 834 332 Z M 1624 329 L 1623 330 L 1620 330 L 1619 331 L 1618 331 L 1617 332 L 1616 332 L 1615 333 L 1614 333 L 1608 339 L 1608 340 L 1606 342 L 1606 343 L 1604 345 L 1604 346 L 1603 347 L 1603 349 L 1602 350 L 1602 352 L 1601 353 L 1601 355 L 1600 356 L 1600 359 L 1599 360 L 1599 364 L 1598 365 L 1598 390 L 1599 391 L 1599 395 L 1600 396 L 1600 399 L 1601 400 L 1601 402 L 1602 403 L 1602 404 L 1603 405 L 1603 406 L 1604 407 L 1604 408 L 1605 409 L 1605 410 L 1606 411 L 1606 412 L 1613 419 L 1614 419 L 1615 420 L 1616 420 L 1617 421 L 1618 421 L 1619 422 L 1623 422 L 1624 423 L 1631 423 L 1632 422 L 1635 422 L 1636 421 L 1638 421 L 1639 420 L 1640 420 L 1642 418 L 1643 418 L 1646 415 L 1646 414 L 1649 411 L 1649 410 L 1650 409 L 1650 408 L 1651 407 L 1651 405 L 1652 404 L 1652 402 L 1653 401 L 1653 399 L 1654 398 L 1654 392 L 1643 392 L 1643 396 L 1642 397 L 1642 399 L 1641 400 L 1641 402 L 1635 408 L 1634 408 L 1633 409 L 1631 409 L 1630 410 L 1626 410 L 1625 409 L 1623 409 L 1622 408 L 1621 408 L 1620 407 L 1619 407 L 1615 403 L 1615 402 L 1613 400 L 1613 398 L 1612 397 L 1612 396 L 1611 395 L 1611 391 L 1610 390 L 1610 382 L 1611 381 L 1653 381 L 1654 380 L 1656 380 L 1656 371 L 1655 370 L 1655 363 L 1654 362 L 1654 358 L 1653 357 L 1653 355 L 1652 354 L 1652 351 L 1651 350 L 1651 349 L 1650 348 L 1650 346 L 1649 345 L 1649 344 L 1648 343 L 1648 342 L 1646 340 L 1646 339 L 1639 332 L 1638 332 L 1637 331 L 1635 331 L 1634 330 L 1631 330 L 1630 329 Z M 1610 362 L 1611 361 L 1611 358 L 1612 357 L 1612 355 L 1613 354 L 1613 353 L 1614 352 L 1614 351 L 1621 344 L 1623 344 L 1624 343 L 1630 343 L 1631 344 L 1633 344 L 1639 350 L 1639 351 L 1640 352 L 1640 353 L 1641 354 L 1641 356 L 1642 357 L 1642 361 L 1643 362 L 1643 366 L 1642 367 L 1611 367 L 1610 366 Z M 1447 329 L 1446 330 L 1443 330 L 1442 331 L 1440 331 L 1439 332 L 1438 332 L 1436 334 L 1435 334 L 1430 339 L 1430 340 L 1428 342 L 1428 343 L 1426 345 L 1426 346 L 1425 347 L 1425 349 L 1424 350 L 1424 351 L 1423 352 L 1423 355 L 1422 356 L 1422 359 L 1421 360 L 1421 365 L 1420 366 L 1420 387 L 1421 388 L 1421 393 L 1422 394 L 1422 397 L 1423 398 L 1423 401 L 1424 402 L 1424 403 L 1425 404 L 1425 405 L 1426 406 L 1426 407 L 1427 408 L 1427 409 L 1428 410 L 1428 411 L 1436 419 L 1437 419 L 1438 420 L 1439 420 L 1440 421 L 1442 421 L 1443 422 L 1446 422 L 1447 423 L 1455 423 L 1456 422 L 1459 422 L 1460 421 L 1462 421 L 1463 420 L 1464 420 L 1465 419 L 1466 419 L 1474 411 L 1474 410 L 1475 409 L 1475 408 L 1476 407 L 1476 406 L 1477 405 L 1477 404 L 1478 403 L 1478 402 L 1479 401 L 1479 399 L 1480 398 L 1480 394 L 1481 393 L 1481 389 L 1482 388 L 1482 364 L 1481 363 L 1481 359 L 1480 358 L 1480 355 L 1479 354 L 1479 352 L 1478 351 L 1478 349 L 1477 348 L 1477 347 L 1476 346 L 1476 345 L 1475 344 L 1475 343 L 1473 341 L 1473 340 L 1467 334 L 1466 334 L 1464 332 L 1463 332 L 1462 331 L 1460 331 L 1459 330 L 1455 330 L 1454 329 Z M 1448 343 L 1455 343 L 1456 344 L 1457 344 L 1458 345 L 1459 345 L 1464 350 L 1464 351 L 1466 353 L 1466 354 L 1467 355 L 1467 357 L 1468 358 L 1468 361 L 1469 362 L 1469 366 L 1470 367 L 1470 386 L 1469 387 L 1469 391 L 1468 392 L 1468 394 L 1467 395 L 1467 397 L 1466 398 L 1466 399 L 1465 400 L 1465 401 L 1458 408 L 1457 408 L 1456 409 L 1454 409 L 1453 410 L 1449 410 L 1448 409 L 1446 409 L 1445 408 L 1444 408 L 1437 401 L 1437 400 L 1436 399 L 1436 398 L 1435 397 L 1435 395 L 1434 394 L 1434 391 L 1433 390 L 1433 385 L 1432 384 L 1432 368 L 1433 367 L 1433 363 L 1434 362 L 1434 359 L 1435 358 L 1435 356 L 1436 355 L 1436 354 L 1437 353 L 1437 352 L 1439 350 L 1439 349 L 1442 346 L 1443 346 L 1445 344 L 1447 344 Z M 1352 330 L 1348 330 L 1347 329 L 1341 329 L 1340 330 L 1338 330 L 1337 331 L 1335 331 L 1333 333 L 1332 333 L 1327 338 L 1327 339 L 1326 340 L 1326 341 L 1325 342 L 1324 341 L 1324 332 L 1323 331 L 1313 331 L 1312 332 L 1312 411 L 1313 412 L 1312 413 L 1312 417 L 1313 418 L 1313 421 L 1324 421 L 1324 367 L 1325 366 L 1325 360 L 1326 359 L 1326 357 L 1327 356 L 1327 354 L 1328 353 L 1328 352 L 1330 350 L 1330 349 L 1333 346 L 1334 346 L 1336 344 L 1338 344 L 1339 343 L 1345 343 L 1346 344 L 1348 344 L 1353 349 L 1353 351 L 1354 352 L 1354 356 L 1355 357 L 1355 421 L 1366 421 L 1366 419 L 1367 418 L 1367 357 L 1366 356 L 1366 348 L 1365 347 L 1365 344 L 1364 343 L 1364 342 L 1363 341 L 1363 339 L 1361 337 L 1361 336 L 1358 333 L 1357 333 L 1356 332 L 1355 332 L 1354 331 L 1353 331 Z M 1267 329 L 1266 330 L 1263 330 L 1262 331 L 1261 331 L 1260 332 L 1259 332 L 1257 334 L 1256 334 L 1251 339 L 1251 340 L 1249 342 L 1249 343 L 1248 344 L 1248 345 L 1247 346 L 1247 347 L 1246 348 L 1246 349 L 1245 350 L 1245 351 L 1244 352 L 1244 354 L 1243 355 L 1243 358 L 1242 359 L 1242 363 L 1241 364 L 1241 390 L 1242 391 L 1242 395 L 1243 396 L 1243 399 L 1244 400 L 1244 402 L 1245 403 L 1245 405 L 1246 406 L 1246 407 L 1247 408 L 1247 409 L 1249 411 L 1249 412 L 1256 419 L 1257 419 L 1258 420 L 1259 420 L 1260 421 L 1262 421 L 1263 422 L 1267 422 L 1268 423 L 1275 423 L 1276 422 L 1280 422 L 1281 421 L 1282 421 L 1283 420 L 1284 420 L 1285 419 L 1286 419 L 1292 413 L 1292 412 L 1294 410 L 1294 409 L 1295 408 L 1295 407 L 1296 406 L 1296 404 L 1297 403 L 1297 401 L 1298 400 L 1298 396 L 1299 395 L 1299 392 L 1287 392 L 1287 394 L 1286 395 L 1286 398 L 1285 399 L 1285 401 L 1283 403 L 1283 404 L 1279 408 L 1278 408 L 1277 409 L 1275 409 L 1274 410 L 1269 410 L 1268 409 L 1266 409 L 1265 408 L 1264 408 L 1263 407 L 1262 407 L 1259 404 L 1259 403 L 1257 401 L 1257 400 L 1256 399 L 1256 398 L 1255 397 L 1255 395 L 1254 394 L 1254 392 L 1253 391 L 1253 383 L 1252 382 L 1254 380 L 1255 381 L 1299 381 L 1300 380 L 1300 367 L 1299 366 L 1299 360 L 1298 359 L 1298 356 L 1297 355 L 1297 353 L 1296 352 L 1296 350 L 1295 349 L 1295 347 L 1294 346 L 1294 345 L 1293 344 L 1293 343 L 1291 341 L 1291 340 L 1283 332 L 1282 332 L 1281 331 L 1279 331 L 1278 330 L 1275 330 L 1274 329 Z M 1253 362 L 1254 361 L 1254 358 L 1255 357 L 1255 356 L 1256 355 L 1256 354 L 1257 353 L 1257 352 L 1258 351 L 1258 350 L 1263 345 L 1264 345 L 1265 344 L 1266 344 L 1267 343 L 1274 343 L 1275 344 L 1276 344 L 1277 345 L 1278 345 L 1282 349 L 1282 350 L 1284 352 L 1284 354 L 1285 355 L 1285 357 L 1286 358 L 1286 362 L 1287 363 L 1287 366 L 1286 367 L 1254 367 L 1253 366 Z M 1101 331 L 1101 421 L 1112 421 L 1112 365 L 1113 364 L 1113 359 L 1114 358 L 1114 356 L 1115 355 L 1115 353 L 1117 351 L 1117 350 L 1123 344 L 1124 344 L 1125 343 L 1133 343 L 1134 344 L 1135 344 L 1139 348 L 1139 349 L 1140 350 L 1140 353 L 1141 354 L 1141 421 L 1153 421 L 1153 360 L 1154 359 L 1154 356 L 1155 355 L 1155 353 L 1156 352 L 1156 351 L 1158 349 L 1158 348 L 1160 346 L 1161 346 L 1163 344 L 1164 344 L 1165 343 L 1173 343 L 1174 344 L 1175 344 L 1179 348 L 1179 349 L 1180 350 L 1180 352 L 1181 353 L 1181 421 L 1193 421 L 1193 347 L 1192 346 L 1192 343 L 1191 342 L 1191 341 L 1190 340 L 1190 339 L 1189 338 L 1189 337 L 1184 332 L 1183 332 L 1182 331 L 1181 331 L 1180 330 L 1176 330 L 1175 329 L 1168 329 L 1167 330 L 1164 330 L 1163 331 L 1162 331 L 1161 332 L 1160 332 L 1153 339 L 1153 340 L 1151 342 L 1150 341 L 1150 340 L 1149 339 L 1149 338 L 1147 336 L 1147 335 L 1145 333 L 1144 333 L 1142 331 L 1141 331 L 1140 330 L 1137 330 L 1136 329 L 1129 329 L 1128 330 L 1125 330 L 1124 331 L 1123 331 L 1121 333 L 1120 333 L 1115 338 L 1115 339 L 1113 341 L 1112 340 L 1112 332 L 1111 331 Z M 1046 331 L 1045 332 L 1044 332 L 1043 333 L 1042 333 L 1039 336 L 1038 336 L 1037 337 L 1037 338 L 1035 340 L 1035 341 L 1034 342 L 1034 343 L 1033 344 L 1033 346 L 1032 347 L 1032 350 L 1031 351 L 1031 359 L 1042 359 L 1042 356 L 1043 355 L 1043 351 L 1044 350 L 1044 349 L 1048 345 L 1049 345 L 1050 344 L 1051 344 L 1052 343 L 1062 343 L 1063 344 L 1064 344 L 1065 345 L 1066 345 L 1069 348 L 1069 349 L 1070 350 L 1070 353 L 1071 354 L 1071 361 L 1070 362 L 1070 363 L 1067 366 L 1066 366 L 1065 367 L 1063 367 L 1062 368 L 1059 368 L 1058 369 L 1053 369 L 1052 370 L 1049 370 L 1048 371 L 1045 371 L 1044 372 L 1042 372 L 1041 373 L 1040 373 L 1038 375 L 1037 375 L 1032 380 L 1032 381 L 1031 382 L 1031 383 L 1030 384 L 1030 386 L 1029 387 L 1029 390 L 1028 391 L 1028 406 L 1029 407 L 1029 410 L 1030 411 L 1030 412 L 1031 413 L 1031 414 L 1032 415 L 1032 416 L 1034 418 L 1035 418 L 1038 421 L 1040 421 L 1041 422 L 1044 422 L 1045 423 L 1053 423 L 1054 422 L 1057 422 L 1058 421 L 1060 421 L 1061 420 L 1062 420 L 1064 418 L 1065 418 L 1069 414 L 1069 413 L 1071 411 L 1072 412 L 1072 415 L 1073 416 L 1073 418 L 1074 419 L 1074 420 L 1076 422 L 1078 422 L 1079 423 L 1084 423 L 1085 422 L 1087 422 L 1088 421 L 1089 421 L 1089 409 L 1088 409 L 1087 410 L 1084 410 L 1083 409 L 1083 408 L 1082 407 L 1082 347 L 1081 346 L 1081 343 L 1080 342 L 1080 340 L 1079 339 L 1079 338 L 1074 333 L 1073 333 L 1072 332 L 1071 332 L 1070 331 L 1068 331 L 1067 330 L 1062 330 L 1061 329 L 1054 329 L 1053 330 L 1049 330 L 1048 331 Z M 1070 376 L 1071 377 L 1071 392 L 1070 393 L 1070 397 L 1069 398 L 1069 399 L 1068 400 L 1068 401 L 1062 407 L 1061 407 L 1060 408 L 1059 408 L 1058 409 L 1056 409 L 1055 410 L 1049 410 L 1048 409 L 1047 409 L 1046 408 L 1045 408 L 1041 404 L 1041 402 L 1040 401 L 1040 392 L 1041 391 L 1041 389 L 1043 387 L 1043 386 L 1045 384 L 1046 384 L 1047 383 L 1048 383 L 1049 382 L 1050 382 L 1051 381 L 1054 381 L 1055 380 L 1059 380 L 1060 379 L 1063 379 L 1064 378 L 1066 378 L 1067 377 L 1068 377 L 1069 376 Z M 960 331 L 958 331 L 957 330 L 953 330 L 952 329 L 947 329 L 946 330 L 943 330 L 942 331 L 940 331 L 939 332 L 938 332 L 932 338 L 932 339 L 930 341 L 930 342 L 929 343 L 928 342 L 928 331 L 917 331 L 917 421 L 928 421 L 929 420 L 929 362 L 930 361 L 930 358 L 931 357 L 931 355 L 932 354 L 932 353 L 933 352 L 933 351 L 939 345 L 940 345 L 941 344 L 942 344 L 943 343 L 950 343 L 951 344 L 953 344 L 958 349 L 958 350 L 959 351 L 959 354 L 960 355 L 960 421 L 972 421 L 972 354 L 971 353 L 971 347 L 970 346 L 970 344 L 969 343 L 969 341 L 968 340 L 968 339 L 966 337 L 966 336 L 963 333 L 962 333 Z M 47 328 L 47 330 L 49 332 L 50 332 L 54 336 L 55 336 L 58 339 L 59 339 L 61 341 L 62 341 L 66 345 L 67 345 L 71 349 L 72 349 L 75 352 L 76 352 L 79 355 L 80 355 L 84 359 L 85 359 L 89 363 L 90 363 L 93 366 L 94 366 L 98 370 L 99 370 L 102 373 L 103 373 L 108 378 L 109 378 L 112 381 L 113 381 L 117 385 L 118 385 L 121 388 L 122 388 L 126 392 L 127 392 L 131 396 L 132 396 L 137 401 L 138 401 L 141 404 L 142 404 L 147 409 L 148 409 L 153 414 L 154 414 L 158 418 L 159 418 L 164 423 L 165 423 L 171 429 L 172 429 L 178 435 L 179 435 L 186 442 L 187 442 L 195 450 L 196 450 L 212 466 L 213 466 L 243 496 L 243 497 L 261 515 L 261 516 L 270 525 L 270 526 L 278 534 L 278 535 L 283 540 L 283 541 L 290 548 L 290 549 L 295 554 L 295 555 L 300 560 L 300 561 L 301 562 L 302 562 L 302 560 L 303 559 L 303 554 L 304 553 L 304 538 L 305 537 L 305 520 L 304 519 L 304 507 L 303 506 L 303 497 L 302 496 L 302 492 L 301 491 L 301 486 L 300 485 L 300 481 L 299 480 L 299 477 L 298 476 L 298 473 L 297 472 L 297 470 L 296 469 L 296 466 L 295 465 L 295 463 L 294 462 L 294 460 L 293 459 L 293 457 L 292 456 L 292 454 L 291 453 L 291 452 L 290 451 L 290 449 L 289 448 L 289 447 L 288 446 L 288 444 L 287 443 L 287 442 L 286 441 L 286 440 L 285 439 L 285 437 L 284 436 L 284 435 L 283 434 L 283 433 L 282 432 L 282 431 L 281 430 L 281 429 L 279 427 L 279 426 L 278 425 L 278 424 L 277 423 L 277 422 L 275 420 L 275 419 L 274 418 L 274 417 L 273 416 L 273 415 L 271 413 L 271 412 L 269 410 L 269 409 L 267 407 L 267 406 L 264 403 L 264 402 L 262 400 L 262 399 L 257 394 L 257 393 L 253 389 L 253 388 L 236 371 L 235 371 L 228 364 L 227 364 L 223 360 L 222 360 L 220 358 L 219 358 L 216 355 L 215 355 L 213 353 L 212 353 L 210 351 L 209 351 L 207 349 L 206 349 L 205 348 L 204 348 L 202 346 L 201 346 L 200 345 L 199 345 L 198 344 L 197 344 L 195 342 L 194 342 L 193 341 L 192 341 L 191 340 L 190 340 L 189 339 L 188 339 L 187 338 L 185 338 L 184 337 L 183 337 L 182 336 L 181 336 L 180 335 L 179 335 L 178 334 L 176 334 L 175 333 L 174 333 L 173 332 L 171 332 L 170 331 L 168 331 L 167 330 L 165 330 L 164 329 L 162 329 L 161 328 L 159 328 L 158 327 L 156 327 L 155 326 L 152 326 L 151 325 L 148 325 L 147 324 L 143 324 L 142 323 L 137 323 L 136 322 L 130 322 L 129 321 L 124 321 L 123 320 L 88 320 L 87 321 L 80 321 L 79 322 L 72 322 L 71 323 L 66 323 L 65 324 L 61 324 L 60 325 L 57 325 L 56 326 L 53 326 L 52 327 L 50 327 L 49 328 Z M 1387 304 L 1387 330 L 1386 331 L 1377 331 L 1376 332 L 1376 343 L 1377 344 L 1385 344 L 1387 346 L 1387 410 L 1388 411 L 1388 414 L 1389 415 L 1389 416 L 1392 419 L 1393 419 L 1394 420 L 1396 420 L 1397 421 L 1411 421 L 1411 408 L 1402 408 L 1399 405 L 1399 345 L 1400 344 L 1411 344 L 1411 331 L 1400 331 L 1399 330 L 1399 304 Z M 994 304 L 994 330 L 993 331 L 984 331 L 983 332 L 983 344 L 993 344 L 994 345 L 994 409 L 995 410 L 995 413 L 996 414 L 996 415 L 997 416 L 997 417 L 998 418 L 999 418 L 1001 420 L 1003 420 L 1004 421 L 1018 421 L 1018 408 L 1010 408 L 1009 407 L 1008 407 L 1006 405 L 1006 345 L 1007 344 L 1018 344 L 1018 331 L 1007 331 L 1006 330 L 1006 305 L 1005 304 Z M 281 300 L 281 301 L 282 301 L 284 303 L 285 303 L 288 306 L 289 306 L 292 309 L 293 309 L 297 313 L 298 313 L 301 316 L 302 316 L 309 323 L 310 323 L 317 330 L 317 331 L 318 331 L 321 334 L 321 335 L 330 344 L 330 345 L 334 349 L 334 350 L 337 353 L 337 354 L 340 357 L 340 358 L 343 361 L 343 362 L 345 364 L 345 365 L 347 367 L 347 368 L 350 371 L 350 372 L 352 374 L 352 375 L 353 376 L 353 377 L 355 379 L 355 380 L 357 382 L 357 383 L 358 384 L 358 385 L 359 386 L 359 387 L 361 389 L 361 390 L 362 391 L 362 392 L 363 393 L 363 394 L 364 395 L 364 396 L 365 397 L 365 398 L 366 399 L 366 400 L 367 401 L 367 402 L 368 403 L 368 404 L 369 405 L 369 406 L 370 407 L 370 408 L 371 409 L 371 411 L 372 412 L 372 413 L 373 414 L 373 415 L 374 416 L 374 418 L 375 419 L 375 420 L 376 421 L 376 423 L 377 424 L 377 426 L 378 427 L 378 428 L 379 429 L 379 431 L 380 432 L 380 434 L 381 435 L 381 436 L 382 437 L 382 439 L 383 440 L 383 442 L 384 443 L 384 446 L 385 447 L 385 449 L 386 450 L 386 453 L 387 454 L 387 458 L 388 459 L 388 461 L 389 462 L 389 465 L 390 466 L 390 470 L 391 471 L 391 474 L 392 475 L 392 480 L 393 481 L 393 487 L 394 488 L 394 494 L 395 495 L 395 504 L 396 505 L 396 517 L 397 518 L 397 544 L 396 545 L 396 559 L 395 560 L 395 567 L 394 568 L 394 573 L 393 574 L 393 579 L 392 580 L 392 581 L 554 581 L 554 552 L 555 551 L 555 550 L 554 549 L 554 527 L 555 526 L 555 301 L 554 300 Z M 413 513 L 414 512 L 416 512 L 417 511 L 421 511 L 422 510 L 423 511 L 426 511 L 427 512 L 429 512 L 430 513 L 431 513 L 432 514 L 433 514 L 435 516 L 436 516 L 440 520 L 440 521 L 438 523 L 425 523 L 424 522 L 422 522 L 421 521 L 420 521 L 413 514 Z M 426 485 L 427 484 L 429 484 L 435 490 L 435 491 L 436 492 L 436 493 L 437 494 L 437 496 L 438 497 L 438 504 L 439 505 L 439 511 L 440 512 L 440 513 L 441 513 L 441 512 L 440 511 L 440 509 L 441 508 L 441 505 L 442 504 L 442 503 L 443 502 L 443 501 L 451 493 L 452 493 L 453 494 L 453 496 L 454 497 L 454 505 L 453 506 L 453 508 L 452 509 L 452 510 L 451 511 L 451 512 L 448 515 L 448 516 L 447 517 L 446 517 L 444 519 L 444 521 L 446 523 L 446 524 L 448 526 L 448 527 L 452 531 L 452 532 L 453 532 L 453 520 L 454 519 L 454 517 L 455 516 L 455 515 L 457 513 L 457 512 L 460 509 L 461 509 L 462 508 L 463 508 L 464 509 L 464 513 L 465 514 L 465 518 L 464 519 L 464 523 L 463 524 L 463 525 L 462 526 L 462 528 L 460 530 L 460 531 L 457 534 L 456 534 L 456 535 L 460 539 L 461 539 L 463 541 L 464 541 L 465 542 L 467 542 L 467 540 L 466 539 L 466 527 L 467 526 L 467 525 L 468 524 L 468 522 L 470 520 L 470 519 L 473 516 L 474 516 L 475 517 L 475 520 L 476 521 L 476 533 L 475 534 L 475 536 L 474 537 L 474 538 L 473 539 L 473 540 L 471 542 L 471 545 L 474 545 L 475 546 L 486 546 L 486 544 L 483 541 L 483 540 L 482 539 L 482 538 L 481 537 L 481 534 L 480 533 L 480 525 L 481 524 L 481 521 L 482 520 L 482 519 L 483 518 L 488 523 L 488 524 L 489 525 L 489 526 L 490 527 L 490 529 L 491 530 L 491 543 L 490 544 L 490 545 L 494 545 L 495 544 L 497 544 L 498 543 L 499 543 L 500 542 L 501 542 L 502 541 L 503 541 L 504 540 L 505 540 L 507 538 L 508 538 L 509 537 L 509 536 L 507 536 L 506 535 L 505 535 L 504 534 L 503 534 L 501 532 L 500 532 L 497 529 L 497 528 L 495 526 L 495 525 L 494 524 L 494 522 L 493 521 L 493 515 L 494 514 L 496 514 L 497 515 L 498 515 L 499 516 L 500 516 L 502 518 L 503 518 L 505 520 L 505 521 L 506 522 L 506 523 L 508 525 L 508 527 L 509 528 L 509 529 L 510 530 L 510 534 L 512 534 L 518 528 L 518 527 L 520 525 L 520 524 L 521 523 L 521 522 L 522 521 L 522 520 L 523 519 L 523 518 L 524 517 L 524 516 L 525 515 L 527 515 L 529 517 L 528 518 L 528 520 L 527 521 L 527 522 L 526 523 L 526 524 L 524 526 L 524 527 L 522 529 L 522 530 L 513 539 L 513 540 L 514 541 L 514 543 L 515 544 L 515 546 L 516 547 L 516 551 L 517 552 L 517 554 L 516 555 L 516 559 L 515 560 L 515 561 L 514 562 L 514 564 L 511 567 L 510 567 L 507 564 L 507 562 L 506 561 L 506 549 L 507 548 L 507 547 L 508 546 L 508 545 L 509 544 L 509 543 L 508 543 L 507 544 L 506 544 L 505 545 L 504 545 L 503 546 L 502 546 L 501 547 L 500 547 L 499 548 L 498 548 L 497 549 L 495 549 L 494 550 L 491 550 L 490 551 L 490 556 L 489 557 L 489 560 L 488 561 L 488 563 L 487 564 L 487 565 L 481 571 L 480 571 L 479 572 L 477 572 L 476 573 L 474 573 L 473 572 L 473 568 L 474 567 L 474 564 L 475 563 L 475 562 L 476 561 L 476 560 L 483 553 L 484 553 L 485 552 L 485 551 L 478 551 L 477 550 L 473 550 L 472 549 L 469 549 L 468 550 L 468 551 L 467 552 L 467 553 L 466 554 L 466 555 L 464 557 L 464 558 L 461 561 L 460 561 L 458 563 L 457 563 L 456 564 L 454 564 L 453 565 L 447 565 L 446 564 L 446 563 L 447 562 L 447 560 L 449 558 L 449 557 L 455 551 L 456 551 L 457 550 L 458 550 L 459 549 L 461 549 L 462 548 L 465 548 L 465 547 L 464 546 L 463 546 L 462 545 L 461 545 L 457 541 L 456 541 L 454 539 L 453 539 L 450 542 L 449 542 L 445 546 L 444 546 L 443 547 L 441 547 L 440 548 L 429 548 L 426 545 L 428 543 L 428 542 L 429 541 L 430 541 L 433 538 L 434 538 L 435 537 L 436 537 L 437 536 L 439 536 L 440 535 L 449 535 L 450 536 L 451 536 L 451 535 L 450 535 L 448 533 L 448 532 L 445 529 L 445 528 L 443 526 L 443 525 L 442 524 L 442 523 L 441 522 L 441 520 L 440 519 L 440 518 L 439 517 L 439 516 L 438 515 L 438 513 L 437 512 L 437 511 L 435 509 L 434 509 L 430 505 L 430 504 L 428 502 L 428 501 L 427 500 L 427 498 L 426 497 L 426 493 L 425 492 L 425 488 L 426 487 Z M 429 322 L 447 322 L 448 323 L 448 337 L 449 338 L 466 338 L 466 323 L 467 322 L 483 322 L 484 323 L 484 338 L 502 338 L 502 323 L 503 322 L 521 322 L 522 323 L 522 332 L 523 333 L 523 336 L 522 337 L 522 341 L 520 343 L 520 344 L 518 346 L 518 347 L 515 350 L 515 351 L 513 353 L 513 354 L 511 356 L 511 363 L 512 364 L 512 366 L 511 367 L 511 400 L 512 401 L 511 402 L 511 403 L 513 405 L 513 406 L 515 408 L 515 409 L 516 410 L 516 411 L 519 414 L 519 415 L 521 417 L 521 418 L 522 419 L 522 449 L 521 450 L 429 450 L 428 449 L 428 420 L 429 419 L 429 418 L 431 416 L 431 415 L 433 413 L 433 412 L 435 410 L 435 409 L 438 406 L 438 405 L 439 404 L 439 355 L 438 354 L 438 353 L 436 351 L 436 350 L 434 348 L 434 347 L 431 344 L 431 343 L 429 341 L 429 340 L 428 339 L 428 323 Z M 34 300 L 34 322 L 38 322 L 39 321 L 41 321 L 42 320 L 44 320 L 45 319 L 48 319 L 49 318 L 52 318 L 53 317 L 56 317 L 57 316 L 60 316 L 61 315 L 65 315 L 66 314 L 70 314 L 71 313 L 78 313 L 79 312 L 88 312 L 89 311 L 117 311 L 118 312 L 128 312 L 129 313 L 134 313 L 135 314 L 140 314 L 141 315 L 145 315 L 146 316 L 149 316 L 150 317 L 153 317 L 154 318 L 157 318 L 158 319 L 160 319 L 161 320 L 164 320 L 165 321 L 167 321 L 168 322 L 170 322 L 171 323 L 173 323 L 174 324 L 176 324 L 177 325 L 178 325 L 179 326 L 180 326 L 181 327 L 183 327 L 184 328 L 185 328 L 186 329 L 187 329 L 188 330 L 189 330 L 190 331 L 191 331 L 192 332 L 193 332 L 194 333 L 196 333 L 197 334 L 198 334 L 200 336 L 201 336 L 202 337 L 203 337 L 204 338 L 205 338 L 207 340 L 208 340 L 209 341 L 210 341 L 212 343 L 213 343 L 215 345 L 216 345 L 218 347 L 219 347 L 221 349 L 222 349 L 225 352 L 226 352 L 229 355 L 230 355 L 233 358 L 234 358 L 241 365 L 242 365 L 252 375 L 252 376 L 262 386 L 262 387 L 266 391 L 266 392 L 269 395 L 269 396 L 272 399 L 272 400 L 274 402 L 274 403 L 276 405 L 276 406 L 278 408 L 278 409 L 280 411 L 280 412 L 281 413 L 281 414 L 282 415 L 282 416 L 284 418 L 284 419 L 286 421 L 286 422 L 287 423 L 287 424 L 288 425 L 288 426 L 289 427 L 289 428 L 290 429 L 290 430 L 291 431 L 291 433 L 292 434 L 292 435 L 294 437 L 294 439 L 295 440 L 295 441 L 296 442 L 296 444 L 297 445 L 297 446 L 298 447 L 298 449 L 299 450 L 299 452 L 300 453 L 300 455 L 301 456 L 301 458 L 302 459 L 302 461 L 303 462 L 303 464 L 304 465 L 304 468 L 305 469 L 305 472 L 306 473 L 306 476 L 307 477 L 307 481 L 308 482 L 308 486 L 309 487 L 309 492 L 310 493 L 310 498 L 311 499 L 311 509 L 312 510 L 312 540 L 311 541 L 311 551 L 310 552 L 310 559 L 309 560 L 309 564 L 308 565 L 308 570 L 310 572 L 310 573 L 314 577 L 314 578 L 317 581 L 386 581 L 386 579 L 387 578 L 387 572 L 388 571 L 388 565 L 389 564 L 389 551 L 390 550 L 390 518 L 389 517 L 389 506 L 388 505 L 388 496 L 387 495 L 387 489 L 386 488 L 386 484 L 385 483 L 385 479 L 384 478 L 384 475 L 383 474 L 383 470 L 382 469 L 382 466 L 381 465 L 381 462 L 380 461 L 380 458 L 379 457 L 379 455 L 378 454 L 378 451 L 377 450 L 377 448 L 376 447 L 376 444 L 375 443 L 375 441 L 374 440 L 374 439 L 373 438 L 373 436 L 372 435 L 372 433 L 371 432 L 371 430 L 370 429 L 370 428 L 369 427 L 369 425 L 368 424 L 368 423 L 367 422 L 367 420 L 366 419 L 366 418 L 365 417 L 365 416 L 364 415 L 364 414 L 363 413 L 363 412 L 362 411 L 362 410 L 361 409 L 361 407 L 360 406 L 360 405 L 359 404 L 359 403 L 358 402 L 358 401 L 356 399 L 356 398 L 355 397 L 355 396 L 354 395 L 354 394 L 353 393 L 353 392 L 351 390 L 351 389 L 350 388 L 350 387 L 349 386 L 349 385 L 347 383 L 347 382 L 346 381 L 346 380 L 344 378 L 344 377 L 342 375 L 342 374 L 340 372 L 340 371 L 338 369 L 338 368 L 336 366 L 336 365 L 333 362 L 333 361 L 329 357 L 329 356 L 326 353 L 326 352 L 321 347 L 321 346 L 305 330 L 305 329 L 304 328 L 303 328 L 294 319 L 293 319 L 288 314 L 287 314 L 284 311 L 283 311 L 280 308 L 279 308 L 277 306 L 276 306 L 274 304 L 273 304 L 270 301 L 269 301 L 268 300 Z M 1213 298 L 1213 316 L 1224 316 L 1225 315 L 1225 299 L 1224 298 Z M 1584 296 L 1573 296 L 1573 339 L 1572 340 L 1570 338 L 1570 337 L 1567 334 L 1566 334 L 1564 332 L 1563 332 L 1562 331 L 1561 331 L 1560 330 L 1557 330 L 1556 329 L 1549 329 L 1548 330 L 1545 330 L 1544 331 L 1542 331 L 1540 333 L 1539 333 L 1533 339 L 1533 340 L 1531 342 L 1531 343 L 1530 344 L 1530 345 L 1529 346 L 1529 347 L 1528 348 L 1528 350 L 1527 351 L 1527 353 L 1526 354 L 1526 357 L 1525 358 L 1525 362 L 1524 363 L 1524 371 L 1523 372 L 1523 380 L 1524 381 L 1524 389 L 1525 390 L 1525 394 L 1526 395 L 1526 398 L 1527 399 L 1527 401 L 1528 402 L 1528 404 L 1529 405 L 1529 406 L 1530 407 L 1530 408 L 1531 409 L 1531 410 L 1533 412 L 1533 413 L 1539 419 L 1540 419 L 1541 420 L 1542 420 L 1543 421 L 1544 421 L 1545 422 L 1548 422 L 1549 423 L 1556 423 L 1557 422 L 1560 422 L 1561 421 L 1563 421 L 1565 419 L 1566 419 L 1571 414 L 1571 413 L 1572 412 L 1573 413 L 1573 421 L 1584 421 L 1584 409 L 1585 408 L 1585 401 L 1584 400 L 1584 390 L 1585 389 L 1585 381 L 1584 380 L 1584 370 L 1585 369 L 1585 360 L 1584 359 L 1584 348 L 1585 347 L 1585 343 L 1584 342 L 1584 329 L 1585 328 L 1585 322 L 1584 321 Z M 1550 343 L 1557 343 L 1558 344 L 1560 344 L 1561 345 L 1562 345 L 1568 351 L 1568 352 L 1569 353 L 1569 354 L 1570 355 L 1570 357 L 1571 358 L 1571 361 L 1572 362 L 1572 366 L 1573 367 L 1573 385 L 1572 386 L 1572 391 L 1571 392 L 1571 394 L 1570 395 L 1570 397 L 1569 398 L 1569 399 L 1568 400 L 1568 401 L 1566 403 L 1566 404 L 1564 406 L 1563 406 L 1561 408 L 1560 408 L 1559 409 L 1557 409 L 1556 410 L 1552 410 L 1551 409 L 1549 409 L 1548 408 L 1547 408 L 1541 402 L 1541 401 L 1540 400 L 1540 399 L 1539 398 L 1539 397 L 1538 396 L 1538 394 L 1537 393 L 1537 389 L 1536 388 L 1536 365 L 1537 364 L 1537 360 L 1538 359 L 1538 356 L 1539 355 L 1539 354 L 1540 353 L 1540 352 L 1541 351 L 1541 350 L 1546 345 L 1547 345 L 1548 344 L 1549 344 Z M 723 296 L 722 297 L 722 299 L 721 300 L 721 303 L 720 304 L 720 306 L 719 307 L 719 310 L 718 311 L 718 313 L 717 314 L 717 317 L 716 318 L 716 320 L 715 321 L 715 324 L 714 325 L 714 327 L 713 328 L 713 331 L 712 332 L 712 335 L 711 336 L 711 338 L 710 339 L 710 341 L 709 342 L 709 345 L 708 346 L 708 349 L 707 350 L 707 352 L 706 353 L 706 356 L 705 357 L 705 359 L 704 360 L 704 363 L 703 364 L 703 367 L 702 368 L 702 370 L 701 371 L 701 374 L 700 375 L 700 377 L 699 378 L 699 381 L 698 382 L 698 384 L 697 385 L 697 388 L 696 389 L 696 392 L 695 393 L 695 395 L 694 396 L 694 399 L 693 400 L 693 402 L 692 403 L 692 405 L 691 406 L 691 409 L 690 410 L 690 413 L 689 414 L 689 417 L 688 418 L 688 421 L 700 421 L 701 420 L 701 418 L 702 417 L 702 414 L 703 413 L 703 411 L 704 410 L 704 407 L 705 406 L 705 403 L 706 402 L 706 399 L 707 398 L 707 395 L 708 394 L 708 391 L 709 390 L 709 388 L 710 387 L 710 385 L 711 384 L 748 384 L 749 385 L 749 387 L 750 388 L 750 391 L 751 392 L 751 395 L 752 396 L 752 398 L 753 399 L 753 402 L 754 403 L 754 406 L 755 407 L 755 409 L 756 410 L 756 413 L 757 414 L 757 416 L 758 417 L 758 420 L 759 421 L 772 421 L 772 417 L 771 416 L 771 414 L 770 413 L 770 410 L 769 409 L 769 407 L 768 406 L 768 403 L 767 402 L 767 400 L 766 399 L 766 396 L 765 395 L 765 393 L 764 392 L 764 389 L 763 388 L 763 386 L 762 385 L 762 382 L 761 381 L 761 379 L 760 378 L 760 375 L 759 374 L 759 372 L 758 371 L 758 368 L 757 367 L 757 365 L 756 364 L 756 362 L 755 361 L 755 358 L 754 357 L 754 354 L 753 353 L 753 351 L 752 350 L 752 348 L 751 347 L 751 344 L 750 343 L 750 340 L 749 339 L 749 337 L 748 336 L 748 334 L 747 333 L 747 330 L 746 329 L 746 327 L 745 326 L 745 323 L 744 322 L 744 319 L 743 318 L 743 316 L 742 315 L 742 313 L 741 312 L 741 309 L 740 308 L 740 306 L 739 305 L 739 302 L 738 301 L 738 299 L 737 298 L 737 296 Z M 729 315 L 730 316 L 730 317 L 731 318 L 731 321 L 732 322 L 732 325 L 733 326 L 733 328 L 734 329 L 734 332 L 735 333 L 735 335 L 736 336 L 736 339 L 737 340 L 737 343 L 738 344 L 738 347 L 739 348 L 739 351 L 740 352 L 740 355 L 741 356 L 741 358 L 742 359 L 742 362 L 743 363 L 743 366 L 744 367 L 744 369 L 743 370 L 715 370 L 714 369 L 715 368 L 715 365 L 716 364 L 716 361 L 717 360 L 717 358 L 718 357 L 718 354 L 719 353 L 719 351 L 720 350 L 720 347 L 721 346 L 721 343 L 722 342 L 722 339 L 723 338 L 723 335 L 724 334 L 724 331 L 725 330 L 725 327 L 726 326 L 726 323 L 727 322 L 727 320 L 728 319 L 728 316 Z M 164 233 L 164 237 L 165 238 L 165 239 L 166 239 L 168 241 L 169 241 L 170 242 L 171 242 L 172 243 L 173 243 L 174 244 L 175 244 L 176 245 L 178 245 L 179 246 L 181 246 L 182 247 L 184 247 L 185 248 L 188 248 L 189 249 L 192 249 L 193 250 L 197 250 L 198 251 L 202 251 L 203 252 L 209 252 L 210 253 L 215 253 L 216 254 L 223 254 L 224 255 L 233 255 L 234 256 L 246 256 L 247 257 L 265 257 L 266 258 L 325 258 L 326 257 L 348 257 L 349 256 L 360 256 L 361 255 L 370 255 L 371 254 L 377 254 L 378 253 L 384 253 L 385 252 L 390 252 L 391 251 L 394 251 L 395 250 L 399 250 L 400 249 L 403 249 L 404 248 L 407 248 L 408 247 L 410 247 L 411 246 L 413 246 L 414 245 L 416 245 L 417 244 L 418 244 L 419 243 L 421 243 L 422 242 L 423 242 L 425 240 L 426 240 L 427 239 L 427 238 L 428 237 L 428 233 L 424 229 L 423 229 L 422 228 L 421 228 L 420 227 L 418 227 L 417 226 L 415 226 L 414 225 L 412 225 L 411 224 L 408 224 L 407 223 L 404 223 L 403 222 L 399 222 L 398 221 L 394 221 L 393 220 L 388 220 L 387 219 L 381 219 L 380 218 L 373 218 L 372 217 L 364 217 L 363 216 L 355 216 L 354 215 L 342 215 L 341 214 L 321 214 L 320 213 L 272 213 L 271 214 L 250 214 L 249 215 L 239 215 L 238 216 L 229 216 L 228 217 L 221 217 L 220 218 L 213 218 L 212 219 L 206 219 L 205 220 L 201 220 L 200 221 L 195 221 L 194 222 L 190 222 L 189 223 L 185 223 L 184 224 L 181 224 L 180 225 L 178 225 L 177 226 L 175 226 L 174 227 L 173 227 L 172 228 L 171 228 L 170 229 L 169 229 L 168 230 L 167 230 Z M 440 73 L 440 74 L 449 83 L 449 84 L 451 86 L 451 87 L 452 88 L 452 89 L 453 90 L 453 92 L 454 93 L 454 99 L 455 100 L 458 100 L 459 101 L 463 101 L 464 102 L 467 102 L 468 103 L 470 103 L 471 104 L 474 104 L 475 105 L 476 105 L 477 106 L 480 106 L 481 107 L 482 107 L 483 108 L 485 108 L 486 109 L 487 109 L 488 110 L 490 110 L 491 111 L 492 111 L 493 112 L 494 112 L 495 113 L 496 113 L 497 114 L 498 114 L 499 115 L 500 115 L 502 117 L 503 117 L 505 119 L 506 119 L 508 121 L 509 121 L 518 130 L 518 131 L 519 132 L 519 133 L 520 134 L 520 136 L 521 137 L 521 143 L 520 144 L 520 146 L 519 147 L 519 148 L 518 149 L 518 150 L 515 153 L 515 154 L 512 157 L 512 158 L 507 163 L 507 164 L 504 167 L 504 168 L 498 174 L 498 175 L 493 180 L 493 181 L 488 186 L 488 187 L 483 192 L 483 193 L 479 197 L 479 198 L 480 198 L 481 199 L 482 199 L 483 200 L 484 200 L 485 201 L 486 201 L 487 202 L 488 202 L 489 203 L 490 203 L 491 204 L 492 204 L 493 205 L 494 205 L 495 206 L 496 206 L 497 207 L 498 207 L 499 208 L 500 208 L 505 203 L 505 202 L 520 187 L 520 186 L 532 174 L 532 173 L 540 165 L 540 164 L 543 161 L 543 160 L 544 159 L 544 158 L 545 157 L 545 156 L 546 155 L 546 154 L 547 153 L 547 150 L 548 149 L 548 134 L 547 133 L 547 130 L 546 129 L 546 127 L 545 126 L 545 125 L 544 124 L 544 123 L 543 122 L 543 121 L 541 119 L 541 118 L 535 112 L 535 111 L 534 111 L 528 105 L 527 105 L 524 102 L 523 102 L 521 100 L 520 100 L 518 98 L 517 98 L 516 97 L 515 97 L 514 96 L 513 96 L 511 94 L 510 94 L 509 93 L 508 93 L 507 92 L 506 92 L 505 91 L 504 91 L 503 90 L 501 90 L 500 89 L 499 89 L 498 88 L 496 88 L 495 87 L 494 87 L 493 86 L 491 86 L 490 85 L 488 85 L 487 84 L 485 84 L 484 83 L 482 83 L 481 82 L 479 82 L 478 81 L 475 81 L 474 80 L 471 80 L 470 79 L 467 79 L 466 78 L 463 78 L 462 77 L 458 77 L 457 76 L 454 76 L 453 75 L 448 75 L 447 74 L 442 74 L 441 73 Z M 153 73 L 148 73 L 147 74 L 143 74 L 142 75 L 138 75 L 137 76 L 134 76 L 133 77 L 130 77 L 129 78 L 125 78 L 124 79 L 122 79 L 121 80 L 118 80 L 117 81 L 115 81 L 114 82 L 111 82 L 110 83 L 108 83 L 107 84 L 105 84 L 104 85 L 102 85 L 101 86 L 100 86 L 99 87 L 97 87 L 96 88 L 95 88 L 94 89 L 92 89 L 91 90 L 90 90 L 89 91 L 88 91 L 87 92 L 85 92 L 84 93 L 83 93 L 82 94 L 81 94 L 79 96 L 78 96 L 77 97 L 76 97 L 75 98 L 74 98 L 72 100 L 71 100 L 69 102 L 68 102 L 64 106 L 63 106 L 52 117 L 52 118 L 50 120 L 50 121 L 49 122 L 49 123 L 47 125 L 47 127 L 46 128 L 46 130 L 45 131 L 45 133 L 44 134 L 44 149 L 45 150 L 45 152 L 46 153 L 46 155 L 47 156 L 47 157 L 48 158 L 48 159 L 49 160 L 49 161 L 52 164 L 52 165 L 59 172 L 59 173 L 69 183 L 69 184 L 83 198 L 83 199 L 93 209 L 94 209 L 95 208 L 96 208 L 97 207 L 98 207 L 99 206 L 100 206 L 101 205 L 102 205 L 103 204 L 104 204 L 105 203 L 106 203 L 107 202 L 108 202 L 109 201 L 110 201 L 111 200 L 112 200 L 113 199 L 113 197 L 110 194 L 110 193 L 105 188 L 105 187 L 100 182 L 100 181 L 95 176 L 95 175 L 89 169 L 89 168 L 85 164 L 85 163 L 82 160 L 82 159 L 78 155 L 78 154 L 76 152 L 76 151 L 74 149 L 74 148 L 73 147 L 73 146 L 72 145 L 72 136 L 73 135 L 73 134 L 74 133 L 74 132 L 75 131 L 75 130 L 77 128 L 77 127 L 79 125 L 80 125 L 85 120 L 86 120 L 87 119 L 88 119 L 90 117 L 91 117 L 92 116 L 93 116 L 94 115 L 95 115 L 96 114 L 97 114 L 98 113 L 99 113 L 100 112 L 101 112 L 102 111 L 104 111 L 105 110 L 106 110 L 107 109 L 109 109 L 110 108 L 112 108 L 113 107 L 115 107 L 116 106 L 118 106 L 119 105 L 121 105 L 122 104 L 125 104 L 126 103 L 129 103 L 130 102 L 134 102 L 135 101 L 138 101 L 139 100 L 139 97 L 140 96 L 140 94 L 141 93 L 141 91 L 142 90 L 142 88 L 144 86 L 144 85 L 146 83 L 146 82 L 149 79 L 149 78 L 153 74 Z M 277 60 L 277 158 L 278 159 L 312 159 L 312 60 L 311 60 L 309 62 L 308 62 L 307 63 L 305 63 L 304 64 L 301 64 L 300 65 L 290 65 L 289 64 L 285 64 L 284 63 L 283 63 L 282 62 L 281 62 L 280 61 L 279 61 L 278 60 Z M 323 46 L 323 47 L 322 48 L 322 49 L 320 51 L 320 52 L 318 54 L 318 55 L 317 56 L 317 69 L 318 70 L 333 70 L 334 71 L 342 71 L 343 72 L 349 72 L 350 73 L 355 73 L 356 74 L 361 74 L 362 75 L 366 75 L 367 76 L 370 76 L 371 77 L 374 77 L 375 78 L 378 78 L 379 79 L 382 79 L 383 80 L 386 80 L 387 81 L 389 81 L 390 82 L 392 82 L 393 83 L 395 83 L 396 84 L 398 84 L 399 85 L 400 85 L 401 86 L 403 86 L 404 87 L 405 87 L 406 88 L 407 88 L 408 89 L 409 89 L 410 90 L 411 90 L 412 91 L 413 91 L 420 98 L 420 99 L 421 100 L 421 101 L 422 102 L 422 103 L 423 104 L 423 116 L 422 117 L 422 120 L 421 121 L 421 123 L 420 124 L 420 125 L 419 126 L 419 127 L 418 128 L 418 129 L 417 130 L 417 131 L 415 133 L 415 134 L 414 135 L 414 136 L 413 137 L 413 138 L 411 140 L 411 141 L 409 143 L 409 144 L 408 145 L 408 146 L 406 148 L 406 149 L 405 150 L 405 151 L 403 153 L 403 154 L 401 156 L 401 157 L 399 159 L 399 160 L 398 161 L 398 162 L 396 164 L 396 165 L 394 167 L 394 168 L 395 168 L 396 169 L 398 169 L 399 170 L 402 170 L 403 171 L 405 171 L 406 172 L 409 172 L 410 173 L 412 173 L 413 174 L 415 174 L 416 175 L 418 175 L 419 176 L 421 176 L 421 175 L 422 174 L 422 173 L 424 171 L 424 170 L 425 169 L 425 168 L 426 167 L 426 166 L 428 164 L 428 163 L 429 162 L 429 161 L 430 160 L 430 159 L 431 158 L 431 157 L 432 156 L 432 155 L 434 153 L 434 152 L 435 151 L 435 150 L 436 149 L 436 148 L 438 146 L 438 145 L 439 144 L 439 143 L 440 142 L 440 141 L 441 140 L 441 139 L 442 138 L 442 137 L 444 135 L 444 134 L 445 133 L 445 132 L 446 131 L 446 129 L 447 128 L 447 127 L 448 126 L 448 124 L 449 123 L 449 121 L 450 120 L 450 117 L 451 116 L 451 101 L 450 100 L 450 96 L 449 95 L 449 94 L 448 93 L 448 91 L 446 89 L 446 88 L 445 87 L 445 86 L 441 82 L 441 81 L 440 80 L 439 80 L 435 76 L 434 76 L 432 74 L 431 74 L 430 73 L 429 73 L 428 72 L 427 72 L 425 70 L 424 70 L 423 69 L 421 69 L 420 68 L 419 68 L 418 67 L 416 67 L 415 66 L 413 66 L 412 65 L 411 65 L 410 64 L 408 64 L 407 63 L 405 63 L 404 62 L 401 62 L 400 61 L 398 61 L 397 60 L 395 60 L 394 59 L 391 59 L 390 58 L 387 58 L 386 57 L 384 57 L 383 56 L 380 56 L 379 55 L 376 55 L 375 54 L 372 54 L 371 53 L 367 53 L 366 52 L 362 52 L 361 51 L 356 51 L 355 50 L 350 50 L 349 49 L 343 49 L 342 48 L 335 48 L 334 47 L 326 47 L 325 46 Z M 266 45 L 265 45 L 264 46 L 254 46 L 253 47 L 247 47 L 246 48 L 239 48 L 238 49 L 233 49 L 232 50 L 228 50 L 227 51 L 224 51 L 223 52 L 219 52 L 218 53 L 215 53 L 214 54 L 210 54 L 209 55 L 207 55 L 206 56 L 203 56 L 202 57 L 200 57 L 199 58 L 197 58 L 196 59 L 194 59 L 193 60 L 191 60 L 190 61 L 188 61 L 187 62 L 185 62 L 184 63 L 183 63 L 182 64 L 180 64 L 179 65 L 178 65 L 177 66 L 175 66 L 174 67 L 173 67 L 172 68 L 171 68 L 170 69 L 169 69 L 168 70 L 167 70 L 165 72 L 164 72 L 162 74 L 161 74 L 151 84 L 151 85 L 149 87 L 149 88 L 148 89 L 148 90 L 147 91 L 147 92 L 146 93 L 146 94 L 145 95 L 145 97 L 144 98 L 144 101 L 143 102 L 143 118 L 144 119 L 144 122 L 145 123 L 145 125 L 146 126 L 146 128 L 147 129 L 147 130 L 148 131 L 148 132 L 149 133 L 149 135 L 150 136 L 150 137 L 152 139 L 152 140 L 153 141 L 153 143 L 155 145 L 155 146 L 156 147 L 156 148 L 157 149 L 157 150 L 158 151 L 158 152 L 159 153 L 159 154 L 160 155 L 160 156 L 161 157 L 161 158 L 163 160 L 163 161 L 164 162 L 164 163 L 165 164 L 165 165 L 166 166 L 166 167 L 168 169 L 168 170 L 169 171 L 169 172 L 170 173 L 170 174 L 171 175 L 171 176 L 172 177 L 173 177 L 174 176 L 176 176 L 177 175 L 179 175 L 180 174 L 182 174 L 183 173 L 184 173 L 185 172 L 187 172 L 188 171 L 190 171 L 191 170 L 193 170 L 194 169 L 196 169 L 197 168 L 197 167 L 195 165 L 195 164 L 194 163 L 194 162 L 193 161 L 193 160 L 192 159 L 192 158 L 190 156 L 190 155 L 189 154 L 189 153 L 187 151 L 187 150 L 186 149 L 186 148 L 185 147 L 185 146 L 184 145 L 184 144 L 182 142 L 182 141 L 181 140 L 181 139 L 179 137 L 179 136 L 178 135 L 178 134 L 176 132 L 176 131 L 175 130 L 175 128 L 173 126 L 173 124 L 172 123 L 172 122 L 171 121 L 171 118 L 170 117 L 170 107 L 171 106 L 171 104 L 172 103 L 172 101 L 174 99 L 174 98 L 180 92 L 181 92 L 182 91 L 183 91 L 184 90 L 185 90 L 186 89 L 187 89 L 188 88 L 189 88 L 190 87 L 192 87 L 193 86 L 194 86 L 195 85 L 197 85 L 198 84 L 200 84 L 201 83 L 203 83 L 204 82 L 206 82 L 207 81 L 209 81 L 210 80 L 213 80 L 214 79 L 217 79 L 218 78 L 220 78 L 221 77 L 225 77 L 226 76 L 229 76 L 230 75 L 234 75 L 235 74 L 240 74 L 241 73 L 246 73 L 247 72 L 253 72 L 254 71 L 261 71 L 262 70 L 271 70 L 272 69 L 272 55 L 271 54 L 271 53 L 269 51 L 269 50 L 267 48 L 267 46 Z M 286 9 L 285 10 L 284 10 L 283 11 L 282 11 L 280 13 L 279 13 L 274 18 L 274 19 L 272 21 L 272 23 L 271 24 L 271 25 L 270 26 L 270 29 L 269 30 L 269 38 L 270 39 L 270 41 L 271 42 L 271 44 L 272 45 L 272 46 L 273 47 L 273 48 L 280 55 L 281 55 L 283 57 L 285 57 L 286 58 L 288 58 L 289 59 L 301 59 L 302 58 L 304 58 L 305 57 L 306 57 L 307 56 L 308 56 L 310 54 L 311 54 L 314 51 L 314 50 L 317 47 L 317 46 L 318 45 L 318 44 L 319 43 L 319 41 L 320 40 L 320 28 L 319 27 L 319 25 L 318 24 L 318 22 L 316 20 L 316 19 L 312 15 L 312 14 L 311 14 L 309 12 L 308 12 L 307 11 L 306 11 L 305 10 L 304 10 L 303 9 L 300 9 L 299 8 L 290 8 L 289 9 Z"/>
</svg>